<?xml version="1.0" standalone="no"?>
<!DOCTYPE svg PUBLIC "-//W3C//DTD SVG 1.1//EN" "http://www.w3.org/Graphics/SVG/1.1/DTD/svg11.dtd" >
<svg xmlns="http://www.w3.org/2000/svg" xmlns:xlink="http://www.w3.org/1999/xlink" version="1.1">
<metadata>
Created by FontForge 20170731 at Tue Oct 18 22:54:48 2022
 By Aleksey,,,
(c) 1990, 2002 Adobe Systems Incorporated. All rights reserved.
</metadata>
<defs>
<font id="HelveticaNeueLTStd-Ex" horiz-adv-x="454" >
  <font-face 
    font-family="HelveticaNeueLT Std Ext"
    font-weight="400"
    font-stretch="expanded"
    units-per-em="2048"
    panose-1="2 11 6 5 2 2 2 2 2 4"
    ascent="1462"
    descent="-586"
    x-height="1073"
    cap-height="1462"
    bbox="-322 -451 2376 1972"
    underline-thickness="102"
    underline-position="-307"
    unicode-range="U+0020-FB02"
  />
<missing-glyph horiz-adv-x="1024" 
d="M0 0v1434h1024v-1434h-1024zM512 809l348 522h-696zM573 717l349 -522v1044zM164 102h696l-348 523zM102 1239v-1044l349 522z" />
    <glyph glyph-name="f_i" unicode="fi" horiz-adv-x="1138" 
d="M809 0v1073h205v-1073h-205zM809 1249v226h205v-226h-205zM215 1073v160q0 143 83.5 204.5t246.5 61.5q28 0 56.5 -2.5t67 -7t54.5 -6.5v-160q-78 4 -115 4q-105 0 -146.5 -20.5t-41.5 -83.5v-150h303v-160h-303v-913h-205v913h-219v160h219z" />
    <glyph glyph-name="f_l" unicode="fl" horiz-adv-x="1138" 
d="M809 0v1475h205v-1475h-205zM215 1073v160q0 143 83.5 204.5t246.5 61.5q28 0 56.5 -2.5t67 -7t54.5 -6.5v-160q-78 4 -115 4q-105 0 -146.5 -20.5t-41.5 -83.5v-150h303v-160h-303v-913h-205v913h-219v160h219z" />
    <glyph glyph-name=".notdef" horiz-adv-x="1024" 
d="M0 0v1434h1024v-1434h-1024zM512 809l348 522h-696zM573 717l349 -522v1044zM164 102h696l-348 523zM102 1239v-1044l349 522z" />
    <glyph glyph-name=".null" horiz-adv-x="0" 
 />
    <glyph glyph-name="nonmarkingreturn" horiz-adv-x="682" 
 />
    <glyph glyph-name="space" unicode=" " horiz-adv-x="684" 
 />
    <glyph glyph-name="exclam" unicode="!" horiz-adv-x="684" 
d="M215 0v238h254v-238h-254zM283 385l-56 694v383h230v-383l-56 -694h-118z" />
    <glyph glyph-name="quotedbl" unicode="&#x22;" horiz-adv-x="985" 
d="M602 911v551h172v-551h-172zM211 911v551h172v-551h-172z" />
    <glyph glyph-name="numbersign" unicode="#" horiz-adv-x="1368" 
d="M784 561l41 299h-241l-41 -299h241zM397 561l41 299h-192v135h211l59 426h146l-60 -426h242l59 426h146l-60 -426h193v-135h-211l-41 -299h192v-135h-211l-59 -426h-145l59 426h-242l-59 -426h-146l60 426h-193v135h211z" />
    <glyph glyph-name="dollar" unicode="$" horiz-adv-x="1368" 
d="M625 139v500q-60 10 -106 19.5t-102.5 26t-98.5 36.5t-84.5 51t-69 68.5t-43.5 89.5t-17 114q0 86 30.5 156.5t81.5 116.5t119.5 77.5t141 45.5t148.5 14v182h98v-182q253 -3 384.5 -110.5t145.5 -288.5h-204q-26 214 -326 227v-461q155 -26 259 -58.5t175.5 -83
t103 -119.5t31.5 -165q0 -88 -32 -160.5t-85.5 -121.5t-127 -82.5t-155 -48.5t-169.5 -15v-182h-98v182q-112 0 -210.5 30t-174 86t-119.5 143.5t-45 195.5h205q3 -35 11.5 -67.5t32.5 -71t59.5 -67.5t98 -50.5t142.5 -26.5zM625 834v448q-150 -8 -233 -64.5t-83 -158.5
q0 -92 82 -150t234 -75zM723 621v-482q179 0 271.5 65.5t92.5 168.5t-84 162.5t-280 85.5z" />
    <glyph glyph-name="percent" unicode="%" horiz-adv-x="2048" 
d="M1753 367q0 129 -50 196.5t-144 67.5t-144.5 -68t-50.5 -196q0 -130 50.5 -197.5t144.5 -67.5t144 67.5t50 197.5zM532 -33l814 1487h172l-813 -1487h-173zM684 1055q0 128 -50.5 196t-144.5 68t-144 -67.5t-50 -196.5q0 -130 50 -197t144 -67t144.5 67t50.5 197z
M1192 367q0 182 93 290.5t274 108.5t273.5 -108.5t92.5 -290.5t-92.5 -291t-273.5 -109t-274 109t-93 291zM123 1055q0 182 92.5 290.5t273.5 108.5t274 -108.5t93 -290.5t-93 -291t-274 -109t-273.5 109t-92.5 291z" />
    <glyph glyph-name="ampersand" unicode="&#x26;" horiz-adv-x="1669" 
d="M1430 0l-177 166q-81 -98 -221 -150.5t-299 -52.5q-127 0 -228.5 27t-165.5 70t-106.5 101.5t-59.5 117t-17 120.5q0 143 92.5 256t288.5 181q-160 143 -160 297q0 150 100 239.5t279 89.5q167 0 268.5 -91t101.5 -226q0 -98 -66.5 -189t-215.5 -151l387 -359
q31 51 46 102t21 126h193q-7 -198 -121 -357l344 -317h-284zM569 1143q0 -51 36 -103t118 -127q109 45 160 102.5t51 117.5q0 64 -50.5 110.5t-125.5 46.5q-92 0 -140.5 -43t-48.5 -104zM1118 285l-465 436q-109 -46 -173 -99t-85.5 -103t-21.5 -113q0 -48 18.5 -93
t58 -86.5t115.5 -66.5t178 -25q263 0 375 150z" />
    <glyph glyph-name="quotesingle" unicode="'" horiz-adv-x="684" 
d="M256 911v551h172v-551h-172z" />
    <glyph glyph-name="parenleft" unicode="(" horiz-adv-x="833" 
d="M772 -389h-154q-409 426 -409 926q0 499 409 925h154q-153 -160 -255.5 -406.5t-102.5 -518.5q0 -273 102.5 -519.5t255.5 -406.5z" />
    <glyph glyph-name="parenright" unicode=")" horiz-adv-x="833" 
d="M215 -389h-154q153 161 256 407.5t103 518.5t-103 518t-256 407h154q410 -427 410 -925q0 -499 -410 -926z" />
    <glyph glyph-name="asterisk" unicode="*" horiz-adv-x="948" 
d="M356 1065l-262 102l58 136l247 -101v260h148v-260l254 101l53 -136l-264 -102l198 -199l-110 -92l-205 211l-201 -211l-104 92z" />
    <glyph glyph-name="plus" unicode="+" horiz-adv-x="1228" 
d="M528 604v432h172v-432h433v-172h-433v-432h-172v432h-432v172h432z" />
    <glyph glyph-name="comma" unicode="," horiz-adv-x="684" 
d="M215 0v238h254v-209q0 -84 -24.5 -153t-83.5 -121.5t-146 -67.5v100q63 19 91.5 66t31.5 147h-123z" />
    <glyph glyph-name="hyphen" unicode="-" horiz-adv-x="985" 
d="M133 463v213h719v-213h-719z" />
    <glyph glyph-name="period" unicode="." horiz-adv-x="684" 
d="M215 0v238h254v-238h-254z" />
    <glyph glyph-name="slash" unicode="/" horiz-adv-x="831" 
d="M0 -37l639 1536h192l-638 -1536h-193z" />
    <glyph glyph-name="zero" unicode="0" horiz-adv-x="1368" 
d="M92 711q0 127 18 234t61 203t109.5 162.5t169 105t234.5 38.5t234.5 -38.5t169 -105t109.5 -162.5t61 -203t18 -234t-18 -234.5t-61 -203.5t-109.5 -162.5t-169 -105t-234.5 -38.5t-234.5 38.5t-169 105t-109.5 162.5t-61 203.5t-18 234.5zM1059 711q0 45 -2 86t-11 101
t-24 109.5t-43.5 102.5t-67 89t-97 59.5t-130.5 23.5t-130.5 -23.5t-97 -59.5t-67 -89t-43.5 -102.5t-24 -109.5t-11 -101t-2 -86t2 -86t11 -101t24 -110t43.5 -103t67 -89t97 -59.5t130.5 -23.5t130.5 23.5t97 59.5t67 89t43.5 103t24 110t11 101t2 86z" />
    <glyph glyph-name="one" unicode="1" horiz-adv-x="909" 
d="M408 0v1034h-428v160h49q76 0 138 10t104.5 26t75.5 39.5t52 46.5t31.5 51t17.5 49.5t7 45.5h170v-1462h-217z" />
    <glyph glyph-name="two" unicode="2" horiz-adv-x="1368" 
d="M299 940h-205q0 236 140.5 375t422.5 139q135 0 239 -34.5t168.5 -96.5t97 -144.5t32.5 -181.5q0 -80 -24 -148t-66 -118t-96.5 -92.5t-118.5 -76.5t-129 -65t-130.5 -64t-121.5 -67t-103 -80t-73 -98h862v-188h-1126q7 107 42 196t89 151.5t122.5 115t142.5 92
t147.5 75.5t139 73.5t116.5 78t80.5 96t29.5 121.5q0 146 -85.5 214.5t-221.5 68.5q-184 0 -275 -91.5t-96 -250.5z" />
    <glyph glyph-name="three" unicode="3" horiz-adv-x="1368" 
d="M524 662v178q27 -2 138 -2q136 0 207 55.5t71 153.5q0 65 -26.5 112.5t-72 73t-98.5 37.5t-114 12q-312 0 -328 -299h-205q12 236 156 353.5t383 117.5q133 0 235.5 -32.5t163.5 -88t92 -124t31 -146.5q0 -105 -54 -186t-159 -107v-4q123 -22 200 -114.5t77 -227.5
q0 -95 -33.5 -176t-99.5 -144.5t-174.5 -100t-249.5 -36.5q-34 0 -57 0.5t-73 5t-87.5 12.5t-89.5 25t-90.5 40.5t-80 60.5t-67.5 84t-43 112.5t-17 143.5h205q4 -88 33 -150t81 -97t117 -50t150 -15q169 0 264 74t95 197q0 122 -98.5 189t-260.5 67q-44 0 -81 -2t-40 -2z
" />
    <glyph glyph-name="four" unicode="4" horiz-adv-x="1368" 
d="M821 518v658h-4l-538 -658h542zM821 0v346h-747v189l772 927h180v-944h250v-172h-250v-346h-205z" />
    <glyph glyph-name="five" unicode="5" horiz-adv-x="1368" 
d="M135 653l131 768h875v-188h-721l-70 -387q149 102 350 102q77 0 150 -13.5t146.5 -48t128 -86.5t88.5 -136.5t34 -190.5q0 -230 -161 -368t-437 -138q-244 0 -397 117.5t-162 296.5h211q32 -130 117 -186t248 -56q58 0 108 9t98.5 32t82.5 59t54.5 94t20.5 132
q0 155 -99.5 233t-258.5 78q-229 0 -340 -135z" />
    <glyph glyph-name="six" unicode="6" horiz-adv-x="1368" 
d="M1069 459q0 139 -90.5 229t-267.5 90q-178 0 -269.5 -90t-91.5 -229q0 -140 91.5 -230t269.5 -90q177 0 267.5 90t90.5 230zM1237 1085h-205q-17 95 -96 146t-188 51q-75 0 -133.5 -13t-113 -48t-91.5 -92.5t-62.5 -150t-32.5 -216.5h4q45 77 158.5 132.5t259.5 55.5
q79 0 153 -14.5t147 -50t127.5 -89.5t88 -139.5t33.5 -193.5q0 -67 -19 -134t-62.5 -133t-107.5 -116.5t-161.5 -81.5t-216.5 -31q-316 0 -462 183t-146 532q0 121 16 222.5t42.5 175.5t66 133t79.5 97.5t92.5 66.5t95 42.5t95 22.5t86 10t74.5 2q56 0 112.5 -9.5t119 -35.5
t112 -65.5t87 -106.5t48.5 -152z" />
    <glyph glyph-name="seven" unicode="7" horiz-adv-x="1214" 
d="M35 1221v200h1104v-180q-241 -304 -389.5 -596.5t-225.5 -644.5h-227q83 332 252 651t387 570h-901z" />
    <glyph glyph-name="eight" unicode="8" horiz-adv-x="1368" 
d="M96 422q0 68 23 126.5t57 96.5t76 67.5t76.5 44t62.5 19.5v4q-122 44 -175.5 117.5t-53.5 181.5q0 179 138 277t386 98q247 0 384.5 -98t137.5 -277q0 -103 -57.5 -180.5t-169.5 -118.5v-4q131 -22 211 -116t80 -238q0 -41 -7 -82t-25.5 -87t-47 -86t-75 -77.5t-106 -64
t-143.5 -42.5t-184 -16t-184 16t-143.5 42.5t-106 64t-75 77.5t-47 86t-25.5 87t-7 82zM991 1069q0 87 -78 150t-227 63t-228 -63.5t-79 -149.5q0 -87 78.5 -150t228.5 -63t227.5 62.5t77.5 150.5zM1055 412q0 119 -91 195.5t-280 76.5t-280 -76.5t-91 -195.5t91 -196
t280 -77t280 77t91 196z" />
    <glyph glyph-name="nine" unicode="9" horiz-adv-x="1368" 
d="M1018 963q0 139 -91.5 229t-269.5 90q-177 0 -267.5 -90t-90.5 -229q0 -140 90.5 -230t267.5 -90q178 0 269.5 90t91.5 230zM131 336h205q17 -95 96.5 -146t188.5 -51q75 0 133.5 13t113 48t91.5 92.5t62 150t32 216.5h-4q-45 -77 -158.5 -132.5t-259.5 -55.5
q-79 0 -153 14.5t-147 50t-127.5 89.5t-88 139.5t-33.5 193.5q0 67 19 134t62.5 133t107.5 116.5t161.5 81.5t216.5 31q316 0 462 -183t146 -532q0 -121 -16 -222.5t-42.5 -175.5t-66 -133t-79.5 -97.5t-92.5 -66.5t-95 -42.5t-95 -22.5t-86 -10t-74.5 -2q-56 0 -112.5 9.5
t-119 35.5t-112 65.5t-87 106.5t-48.5 152z" />
    <glyph glyph-name="colon" unicode=":" horiz-adv-x="684" 
d="M215 817v238h254v-238h-254zM215 0v238h254v-238h-254z" />
    <glyph glyph-name="semicolon" unicode=";" horiz-adv-x="684" 
d="M215 0v238h254v-209q0 -84 -24.5 -153t-83.5 -121.5t-146 -67.5v100q63 19 91.5 66t31.5 147h-123zM215 817v238h254v-238h-254z" />
    <glyph glyph-name="less" unicode="&#x3c;" horiz-adv-x="1228" 
d="M96 444v148l1037 463v-172l-826 -365l826 -364v-172z" />
    <glyph glyph-name="equal" unicode="=" horiz-adv-x="1228" 
d="M96 645v172h1037v-172h-1037zM96 219v172h1037v-172h-1037z" />
    <glyph glyph-name="greater" unicode="&#x3e;" horiz-adv-x="1228" 
d="M922 518l-826 365v172l1037 -463v-148l-1037 -462v172z" />
    <glyph glyph-name="question" unicode="?" horiz-adv-x="1368" 
d="M324 1008h-205q5 114 43.5 203t94.5 142t131 87t145 46.5t145 12.5q106 0 198.5 -28.5t164 -82t112.5 -139t41 -192.5q0 -76 -26 -141t-67.5 -110t-92 -85.5t-100.5 -76.5t-91.5 -72.5t-67.5 -84t-26 -102.5h-193q0 73 19 133t50.5 101t72 78t82 63.5t82 59t72 63.5
t50.5 76.5t19 99.5q0 135 -85.5 201.5t-221.5 66.5q-152 0 -246 -84.5t-100 -234.5zM500 0v238h254v-238h-254z" />
    <glyph glyph-name="at" unicode="@" horiz-adv-x="1638" 
d="M1026 815q0 80 -49.5 139.5t-118.5 59.5q-82 0 -151.5 -62.5t-106.5 -150.5t-37 -172q0 -90 48.5 -147.5t123.5 -57.5q79 0 148.5 65t106 154.5t36.5 171.5zM1087 1008l39 120h148l-156 -559q-2 -9 -8.5 -32t-10 -39t-3.5 -29q0 -47 47 -47q69 0 136 58.5t110 157
t43 204.5q0 122 -46 224t-125 169t-184.5 104t-224.5 37q-138 0 -257.5 -51.5t-201 -139t-128 -207t-46.5 -253.5q0 -181 84.5 -327.5t233.5 -229t333 -82.5q136 0 263 61t215 164h149q-101 -164 -269.5 -256t-365.5 -92q-164 0 -310.5 59.5t-251.5 162t-166.5 245.5
t-61.5 303q0 158 62 300.5t166.5 244.5t248.5 161.5t303 59.5q192 0 354.5 -78.5t261.5 -224.5t99 -328q0 -111 -35.5 -209.5t-91.5 -166.5t-124 -118.5t-134 -74t-121 -23.5q-52 0 -87 31t-38 90h-4q-47 -52 -110 -86.5t-128 -34.5q-129 0 -216 98t-87 236q0 137 56 262
t163 207t240 82q163 0 237 -153z" />
    <glyph glyph-name="A" unicode="A" horiz-adv-x="1554" 
d="M1049 614l-281 648l-274 -648h555zM1315 0l-187 426h-716l-187 -426h-233l661 1462h248l662 -1462h-248z" />
    <glyph glyph-name="B" unicode="B" horiz-adv-x="1593" 
d="M158 0v1462h813q228 0 339 -95t111 -271q0 -233 -213 -310v-4q277 -64 277 -360q0 -81 -28.5 -154.5t-83.5 -134.5t-146 -97t-205 -36h-864zM375 858h592q116 0 176.5 56.5t60.5 148.5q0 211 -250 211h-579v-416zM375 188h588q87 0 149 20.5t95 57t47 78t14 92.5
q0 46 -14.5 85.5t-45.5 74t-89.5 54.5t-137.5 20h-606v-482z" />
    <glyph glyph-name="C" unicode="C" horiz-adv-x="1669" 
d="M1577 936h-217q-27 164 -154.5 269.5t-345.5 105.5q-265 0 -415 -152.5t-150 -445.5q0 -86 18.5 -164.5t60.5 -152t104.5 -127t157.5 -85.5t212 -32q200 0 334 100t178 307h217q-13 -122 -71 -230t-150.5 -189.5t-224.5 -129t-285 -47.5q-115 0 -222 25t-207.5 83.5
t-174.5 145.5t-119 220t-45 298q0 161 50 299.5t144.5 242t241.5 163t330 59.5q94 0 185.5 -16t188 -56.5t170.5 -102.5t126 -162t63 -226z" />
    <glyph glyph-name="D" unicode="D" horiz-adv-x="1630" 
d="M158 0v1462h741q161 0 284 -51t200 -145.5t116 -223.5t39 -290q0 -125 -21.5 -235t-70 -206t-120.5 -164t-178 -107.5t-237 -39.5h-753zM375 188h526q420 0 420 560q0 526 -461 526h-485v-1086z" />
    <glyph glyph-name="E" unicode="E" horiz-adv-x="1441" 
d="M158 0v1462h1175v-188h-958v-424h930v-188h-930v-474h979v-188h-1196z" />
    <glyph glyph-name="F" unicode="F" horiz-adv-x="1327" 
d="M158 0v1462h1132v-188h-915v-432h872v-189h-872v-653h-217z" />
    <glyph glyph-name="G" unicode="G" horiz-adv-x="1781" 
d="M958 600v188h672v-788h-155l-37 209q-42 -49 -86.5 -87t-112 -77t-160 -60.5t-202.5 -21.5q-169 0 -304.5 47t-221.5 122t-143 174.5t-80.5 199t-23.5 201.5q0 164 43.5 298.5t117 225t172.5 152t207.5 89t225.5 27.5q80 0 153 -9t150.5 -30t143.5 -59t123.5 -91.5
t100.5 -132t65 -176.5h-230q-52 155 -172 232.5t-323 77.5q-140 0 -249.5 -47.5t-176 -129.5t-100 -185.5t-33.5 -223.5q0 -121 30 -218.5t82 -162.5t125 -109t155.5 -63.5t176.5 -19.5q234 0 381.5 124.5t165.5 323.5h-480z" />
    <glyph glyph-name="H" unicode="H" horiz-adv-x="1744" 
d="M1370 0v688h-995v-688h-217v1462h217v-585h995v585h217v-1462h-217z" />
    <glyph glyph-name="I" unicode="I" horiz-adv-x="569" 
d="M176 0v1462h217v-1462h-217z" />
    <glyph glyph-name="J" unicode="J" horiz-adv-x="1175" 
d="M47 498h205v-70q0 -145 75 -219t214 -74q131 0 200.5 75.5t69.5 215.5v1036h217v-991q0 -508 -483 -508q-79 0 -145 12.5t-114 32.5t-86.5 52t-63 63t-42 74.5t-26.5 77t-14 80t-6 74.5t-1 69z" />
    <glyph glyph-name="K" unicode="K" horiz-adv-x="1554" 
d="M1247 0l-598 713l-266 -236v-477h-217v1462h217v-735l817 735h307l-694 -606l733 -856h-299z" />
    <glyph glyph-name="L" unicode="L" horiz-adv-x="1290" 
d="M166 0v1462h217v-1274h889v-188h-1106z" />
    <glyph glyph-name="M" unicode="M" horiz-adv-x="2086" 
d="M1042 250l586 1212h301v-1462h-217v1212h-4l-569 -1212h-193l-567 1188h-4v-1188h-217v1462h305z" />
    <glyph glyph-name="N" unicode="N" horiz-adv-x="1744" 
d="M1327 0l-940 1163h-4v-1163h-217v1462h252l940 -1163h4v1163h217v-1462h-252z" />
    <glyph glyph-name="O" unicode="O" horiz-adv-x="1781" 
d="M78 731q0 116 27.5 224t90 208t154.5 174t231 118t310 44t310 -44t231 -118t154.5 -174t90 -208t27.5 -224t-27.5 -224t-90 -208t-154.5 -174t-231 -118t-310 -44t-310 44t-231 118t-154.5 174t-90 208t-27.5 224zM1487 731q0 142 -46 253.5t-127 182t-188.5 107.5
t-234.5 37t-234.5 -37t-188.5 -107.5t-127 -182t-46 -253.5q0 -141 46 -253t127 -182.5t188.5 -107t234.5 -36.5t234.5 36.5t188.5 107t127 182.5t46 253z" />
    <glyph glyph-name="P" unicode="P" horiz-adv-x="1478" 
d="M166 0v1462h754q241 0 365 -107.5t124 -312.5q0 -209 -124.5 -332.5t-350.5 -123.5h-551v-586h-217zM383 774h522q152 0 219.5 72t67.5 192q0 108 -63.5 172t-184.5 64h-561v-500z" />
    <glyph glyph-name="Q" unicode="Q" horiz-adv-x="1781" 
d="M1526 -158l-236 201q-171 -80 -399 -80q-171 0 -310 44t-231 118t-154.5 174t-90 208t-27.5 224t27.5 224t90 208t154.5 174t231 118t310 44t310 -44t231 -118t154.5 -174t90 -208t27.5 -224q0 -172 -63 -327t-191 -261l190 -159zM1120 186l-147 125l112 138l205 -173
q197 156 197 455q0 142 -46 253.5t-127 182t-188.5 107.5t-234.5 37t-234.5 -37t-188.5 -107.5t-127 -182t-46 -253.5q0 -141 46 -253t127 -182.5t188.5 -107t234.5 -36.5q131 0 229 34z" />
    <glyph glyph-name="R" unicode="R" horiz-adv-x="1554" 
d="M166 0v1462h905q105 0 185 -34t125 -91.5t67 -124t22 -139.5q0 -135 -63 -228.5t-182 -131.5v-4q95 -13 151 -97t62 -215q9 -211 21 -283t48 -114h-229q-32 37 -42 232q-2 30 -3 47q-10 191 -76.5 266.5t-206.5 75.5h-567v-621h-217zM383 809h606q76 0 130.5 21t82 57
t39.5 73.5t12 79.5q0 108 -65.5 171t-192.5 63h-612v-465z" />
    <glyph glyph-name="S" unicode="S" horiz-adv-x="1366" 
d="M33 481h217q1 -76 29.5 -134.5t74 -94.5t108 -59t125.5 -32t134 -9q178 0 286.5 65t108.5 182q0 95 -68.5 144.5t-203.5 72.5l-332 56q-43 7 -79 15t-82.5 23.5t-83 34.5t-73 49t-61 65.5t-40 86t-15.5 109.5q0 203 154.5 323.5t431.5 120.5q92 0 175.5 -13.5t164 -47
t140 -84.5t98 -131.5t44.5 -182.5h-217q-6 40 -18 73t-42 71.5t-75 65t-121.5 44t-177.5 17.5q-63 0 -121 -14t-108.5 -41.5t-80.5 -75t-30 -109.5q0 -151 240 -192l358 -62q37 -7 61.5 -11.5t75 -19t86 -31t79.5 -46.5t71.5 -65.5t47 -87.5t19.5 -114q0 -108 -37.5 -192.5
t-98 -137.5t-144.5 -87.5t-169 -48t-179 -13.5q-73 0 -141 7.5t-136.5 25t-126 44.5t-108 68t-85.5 93.5t-55 124t-20 155.5z" />
    <glyph glyph-name="T" unicode="T" horiz-adv-x="1327" 
d="M555 0v1274h-553v188h1323v-188h-553v-1274h-217z" />
    <glyph glyph-name="U" unicode="U" horiz-adv-x="1630" 
d="M154 553v909h217v-936q0 -191 117 -282.5t327 -91.5t327.5 91.5t117.5 282.5v936h217v-909q0 -590 -662 -590q-661 0 -661 590z" />
    <glyph glyph-name="V" unicode="V" horiz-adv-x="1478" 
d="M750 225l518 1237h233l-641 -1462h-231l-652 1462h246z" />
    <glyph glyph-name="W" unicode="W" horiz-adv-x="2238" 
d="M1520 0l-406 1212h-4l-403 -1212h-240l-481 1462h235l375 -1188h4l391 1188h258l402 -1188h4l373 1188h225l-496 -1462h-237z" />
    <glyph glyph-name="X" unicode="X" horiz-adv-x="1441" 
d="M725 899l430 563h268l-563 -712l580 -750h-285l-442 592l-441 -592h-270l578 750l-549 712h276z" />
    <glyph glyph-name="Y" unicode="Y" horiz-adv-x="1478" 
d="M741 797l486 665h264l-645 -850v-612h-217v602l-641 860h276z" />
    <glyph glyph-name="Z" unicode="Z" horiz-adv-x="1402" 
d="M29 0v195l1044 1079h-971v188h1256v-188l-1049 -1086h1065v-188h-1345z" />
    <glyph glyph-name="bracketleft" unicode="[" horiz-adv-x="833" 
d="M240 -389v1851h469v-159h-277v-1532h277v-160h-469z" />
    <glyph glyph-name="backslash" unicode="\" horiz-adv-x="831" 
d="M639 -37l-639 1536h193l638 -1536h-192z" />
    <glyph glyph-name="bracketright" unicode="]" horiz-adv-x="833" 
d="M401 -229v1532h-276v159h469v-1851h-469v160h276z" />
    <glyph glyph-name="asciicircum" unicode="^" horiz-adv-x="1228" 
d="M940 573l-326 676l-325 -676h-172l418 848h155l422 -848h-172z" />
    <glyph glyph-name="underscore" unicode="_" horiz-adv-x="1024" 
d="M0 -256v102h1024v-102h-1024z" />
    <glyph glyph-name="grave" unicode="`" 
d="M186 1231l-268 287h256l176 -287h-164z" />
    <glyph glyph-name="a" unicode="a" horiz-adv-x="1327" 
d="M315 737h-192q20 196 152 284.5t380 88.5q72 0 136 -7.5t131.5 -28t116 -53.5t79.5 -88.5t31 -127.5v-578q0 -92 92 -92q32 0 72 8v-143q-73 -12 -160 -12q-84 0 -129 32t-55 117q-59 -80 -189.5 -127t-267.5 -47q-102 0 -181.5 20.5t-126.5 53t-77 77t-40.5 86
t-10.5 87.5q0 151 104 229t357 105l233 24q97 10 141.5 36t44.5 93q0 53 -24 89t-69.5 54.5t-96.5 25.5t-119 7q-324 0 -332 -213zM956 424v137q-23 -25 -66.5 -38.5t-133.5 -24.5l-232 -29q-126 -16 -184.5 -55t-58.5 -121q0 -75 68.5 -122.5t180.5 -47.5q177 0 301.5 85
t124.5 216z" />
    <glyph glyph-name="b" unicode="b" horiz-adv-x="1402" 
d="M125 0v1475h205v-564h4q59 92 169.5 139.5t237.5 47.5q122 0 228 -38.5t185.5 -110t125 -179.5t45.5 -240q0 -175 -79 -305.5t-210 -196t-295 -65.5q-123 0 -236 46t-171 128h-4v-137h-205zM1108 530q0 183 -106.5 289.5t-286.5 106.5q-181 0 -289.5 -106.5
t-108.5 -289.5q0 -78 23.5 -147.5t70 -125.5t125 -89t179.5 -33q100 0 177.5 33t123.5 89t69 125t23 148z" />
    <glyph glyph-name="c" unicode="c" horiz-adv-x="1290" 
d="M1004 393h217q-62 -232 -200.5 -331t-358.5 -99q-124 0 -224 32.5t-166 86.5t-110.5 128t-64 153.5t-19.5 166.5q0 120 37 224.5t107.5 184t183 125.5t253.5 46q146 0 262.5 -42.5t195.5 -132.5t100 -220h-218q-19 106 -102 164.5t-223 58.5q-127 0 -214 -53.5
t-126 -141.5t-39 -206q0 -181 95.5 -291.5t283.5 -110.5q138 0 217 62t113 196z" />
    <glyph glyph-name="d" unicode="d" horiz-adv-x="1402" 
d="M1073 0v137h-4q-58 -82 -171 -128t-236 -46q-164 0 -295 65.5t-210 196t-79 305.5q0 132 45.5 240t125 179.5t185.5 110t228 38.5q126 0 237 -45t170 -129h4v551h205v-1475h-205zM295 530q0 -79 23 -148t69 -125t123.5 -89t177.5 -33q101 0 179 33t124.5 89t70 125
t23.5 148q0 183 -108 289.5t-289 106.5q-180 0 -286.5 -106.5t-106.5 -289.5z" />
    <glyph glyph-name="e" unicode="e" horiz-adv-x="1366" 
d="M1282 475h-987q6 -80 43 -146t92.5 -107.5t123 -64t136.5 -22.5q106 0 202 44t144 147h217q-37 -93 -99 -165t-137 -114t-155 -63t-162 -21q-152 0 -272.5 46t-196 125.5t-114.5 182t-39 220.5t39 220.5t114.5 181.5t196 125t272.5 46q88 0 169.5 -20t157.5 -66.5
t132 -115t89.5 -173t33.5 -233.5v-27zM301 635h764q-23 143 -125 223t-250 80q-146 0 -256 -81.5t-133 -221.5z" />
    <glyph glyph-name="f" unicode="f" horiz-adv-x="681" 
d="M188 1073v160q0 143 83.5 204.5t246.5 61.5q28 0 56.5 -2.5t67 -7t54.5 -6.5v-160q-78 4 -114 4q-106 0 -147.5 -20.5t-41.5 -83.5v-150h303v-160h-303v-913h-205v913h-219v160h219z" />
    <glyph glyph-name="g" unicode="g" horiz-adv-x="1402" 
d="M1085 915v158h205v-983q0 -288 -146.5 -414.5t-477.5 -126.5q-79 0 -142 6t-135 26.5t-122.5 55.5t-90 97.5t-51.5 148.5h205q26 -99 112.5 -136.5t243.5 -37.5q106 0 184.5 25.5t124.5 71t68 102.5t22 125v155h-4q-137 -198 -415 -198q-89 0 -171.5 19t-159 62
t-133 105.5t-90.5 157t-34 209.5q0 116 34 210.5t90 157.5t132.5 106t159 62t170.5 19q137 0 248 -46.5t169 -136.5h4zM1085 541q0 170 -106.5 277.5t-288.5 107.5q-183 0 -289 -107.5t-106 -277.5q0 -169 105.5 -274t289.5 -105q183 0 289 105t106 274z" />
    <glyph glyph-name="h" unicode="h" horiz-adv-x="1329" 
d="M125 0v1475h205v-564h4q67 105 179 152t241 47q205 0 327.5 -93.5t122.5 -285.5v-731h-205v690q0 248 -317 248q-148 0 -250 -84.5t-102 -235.5v-618h-205z" />
    <glyph glyph-name="i" unicode="i" 
d="M125 0v1073h205v-1073h-205zM125 1249v226h205v-226h-205z" />
    <glyph glyph-name="j" unicode="j" 
d="M-106 -410v172q27 -4 75 -4q83 0 119.5 30.5t36.5 98.5v1186h205v-1139q0 -190 -74 -269t-266 -79q-26 0 -96 4zM125 1249v226h205v-226h-205z" />
    <glyph glyph-name="k" unicode="k" horiz-adv-x="1214" 
d="M346 614l545 459h311l-504 -403l543 -670h-278l-428 537l-189 -150v-387h-205v1475h205v-861z" />
    <glyph glyph-name="l" unicode="l" 
d="M125 0v1475h205v-1475h-205z" />
    <glyph glyph-name="m" unicode="m" horiz-adv-x="2084" 
d="M1755 0v682q0 71 -21 122.5t-58.5 79.5t-81.5 41t-97 13q-97 0 -174.5 -29.5t-127.5 -96.5t-50 -163v-649h-205v682q0 71 -21 122.5t-58.5 79.5t-81.5 41t-97 13q-148 0 -250 -84.5t-102 -235.5v-618h-205v1073h205v-162h4q67 105 179 152t241 47q111 0 206.5 -49
t157.5 -150q77 97 182 148t252 51q27 0 57.5 -3.5t71 -14.5t78 -28t75 -46.5t65 -67.5t44.5 -94.5t17 -124.5v-731h-205z" />
    <glyph glyph-name="n" unicode="n" horiz-adv-x="1329" 
d="M125 0v1073h205v-162h4q67 105 179 152t241 47q205 0 327.5 -93.5t122.5 -285.5v-731h-205v690q0 248 -317 248q-148 0 -250 -84.5t-102 -235.5v-618h-205z" />
    <glyph glyph-name="o" unicode="o" horiz-adv-x="1400" 
d="M78 537q0 118 39 220.5t114.5 181.5t196 125t272.5 46t273 -46t196 -125t114.5 -181.5t39.5 -220.5t-39.5 -220.5t-114.5 -182t-196 -125.5t-273 -46t-272.5 46t-196 125.5t-114.5 182t-39 220.5zM1106 537q0 77 -22.5 145.5t-68.5 127.5t-127 93.5t-188 34.5
q-86 0 -156 -23t-115.5 -61.5t-76 -91t-44 -108.5t-13.5 -117q0 -77 22.5 -146t68 -127.5t126.5 -93.5t188 -35t188 35t127 93.5t68.5 127.5t22.5 146z" />
    <glyph glyph-name="p" unicode="p" horiz-adv-x="1402" 
d="M125 -414v1487h205v-149h4q58 82 171 128t236 46q122 0 228 -38.5t185.5 -110t125 -179.5t45.5 -240q0 -175 -79 -305.5t-210 -196t-295 -65.5q-126 0 -237 45t-170 129h-4v-551h-205zM1108 530q0 79 -23 148t-69 125.5t-123.5 89.5t-177.5 33q-101 0 -179.5 -33
t-125 -89.5t-70 -125.5t-23.5 -148q0 -183 108.5 -289t289.5 -106q180 0 286.5 106t106.5 289z" />
    <glyph glyph-name="q" unicode="q" horiz-adv-x="1402" 
d="M1073 924v149h205v-1487h-205v564h-4q-59 -92 -169.5 -139.5t-237.5 -47.5q-164 0 -295 65.5t-210 196t-79 305.5q0 132 45.5 240t125 179.5t185.5 110t228 38.5q123 0 236 -46t171 -128h4zM295 530q0 -183 106.5 -289t286.5 -106q181 0 289 106t108 289q0 79 -23.5 148
t-70 125.5t-124.5 89.5t-179 33q-100 0 -177.5 -33t-123.5 -89.5t-69 -125.5t-23 -148z" />
    <glyph glyph-name="r" unicode="r" horiz-adv-x="833" 
d="M125 0v1073h205v-196h4q132 233 368 233q70 0 117 -12v-221q-85 20 -145 20q-157 0 -250.5 -91t-93.5 -261v-545h-205z" />
    <glyph glyph-name="s" unicode="s" horiz-adv-x="1214" 
d="M63 338h205q0 -39 17 -74.5t53.5 -68.5t105.5 -52.5t162 -19.5q76 0 135 10.5t94.5 26.5t58.5 39t31.5 45t8.5 47q0 60 -42.5 93.5t-160.5 49.5l-338 45q-123 16 -207 91t-84 194q0 162 131.5 254t358.5 92q252 0 381 -97t143 -263h-205q-5 87 -87 143.5t-234 56.5
q-53 0 -100 -8t-90 -26t-68 -51.5t-25 -78.5q0 -57 37 -88t141 -45l291 -39q198 -27 286.5 -97t88.5 -187q0 -183 -143 -275t-396 -92q-521 0 -549 375z" />
    <glyph glyph-name="t" unicode="t" horiz-adv-x="757" 
d="M215 1073v330h205v-330h307v-160h-307v-661q0 -62 42 -89.5t124 -27.5q53 0 141 15v-173q-82 -14 -229 -14q-283 0 -283 254v696h-221v160h221z" />
    <glyph glyph-name="u" unicode="u" horiz-adv-x="1329" 
d="M1204 1073v-1073h-205v162h-4q-67 -105 -179 -152t-241 -47q-205 0 -327.5 93.5t-122.5 285.5v731h205v-690q0 -248 317 -248q148 0 250 84.5t102 235.5v618h205z" />
    <glyph glyph-name="v" unicode="v" horiz-adv-x="1175" 
d="M594 225l362 848h230l-484 -1073h-225l-487 1073h235z" />
    <glyph glyph-name="w" unicode="w" horiz-adv-x="1857" 
d="M1315 254l307 819h217l-424 -1073h-223l-268 819h-4l-269 -819h-217l-416 1073h228l297 -819h4l266 819h225l273 -819h4z" />
    <glyph glyph-name="x" unicode="x" horiz-adv-x="1214" 
d="M608 705l312 368h272l-451 -518l484 -555h-287l-338 408l-340 -408h-270l477 555l-442 518h278z" />
    <glyph glyph-name="y" unicode="y" horiz-adv-x="1175" 
d="M594 225l362 848h230l-561 -1257q-39 -86 -74 -137.5t-80 -81t-94 -39t-125 -9.5q-37 0 -156 9v172q11 -1 51 -5t68 -4q94 0 133.5 30t89.5 134l47 99l-495 1089h235z" />
    <glyph glyph-name="z" unicode="z" horiz-adv-x="1214" 
d="M55 0v168l791 733h-752v172h1034v-160l-800 -741h831v-172h-1104z" />
    <glyph glyph-name="braceleft" unicode="{" horiz-adv-x="681" 
d="M96 469v135q68 3 119 71t51 171v348q0 122 68.5 195t152.5 73h148v-123h-98q-99 0 -99 -176v-350q0 -55 -14.5 -101.5t-35 -75.5t-46.5 -51t-47 -32t-39 -14v-4q23 -6 50.5 -22t59 -46.5t52 -84.5t20.5 -122v-350q0 -176 99 -176h98v-123h-148q-84 0 -152.5 73t-68.5 195
v348q0 103 -51 171t-119 71z" />
    <glyph glyph-name="bar" unicode="|" 
d="M141 -37v1536h172v-1536h-172z" />
    <glyph glyph-name="braceright" unicode="}" horiz-adv-x="681" 
d="M47 -389v123h98q99 0 99 176v350q0 68 20.5 122t52 84.5t59 46.5t50.5 22v4q-18 4 -39 14t-47 32t-46.5 51t-35 75.5t-14.5 101.5v350q0 176 -99 176h-98v123h148q84 0 152.5 -73t68.5 -195v-348q0 -103 51 -171t119 -71v-135q-68 -3 -119 -71t-51 -171v-348
q0 -122 -68.5 -195t-152.5 -73h-148z" />
    <glyph glyph-name="asciitilde" unicode="~" horiz-adv-x="1228" 
d="M215 360l-74 129q93 177 256 177q86 0 238 -74q7 -4 25 -12.5t26 -12t24 -11t24.5 -11t22 -9t22 -8t19 -5.5t19.5 -4t17 -1q90 0 180 158l73 -129q-93 -176 -256 -176q-87 0 -237 73q-7 4 -25 12.5t-26 12t-24 11t-24.5 11t-22 9t-22 8t-19 5.5t-19.5 4t-17 1
q-90 0 -180 -158z" />
    <glyph glyph-name="uni00A0" unicode="&#xa0;" horiz-adv-x="684" 
 />
    <glyph glyph-name="exclamdown" unicode="&#xa1;" horiz-adv-x="684" 
d="M215 836v237h254v-237h-254zM227 -389v383l56 694h118l56 -694v-383h-230z" />
    <glyph glyph-name="cent" unicode="&#xa2;" horiz-adv-x="1368" 
d="M637 139v797q-153 -20 -230 -127t-77 -272t77 -271.5t230 -126.5zM637 -223v190q-111 7 -200.5 42.5t-149 89.5t-99.5 125t-57.5 147.5t-17.5 158.5q0 114 33 214t97 178.5t165 127.5t229 58v188h111v-188q204 -11 338.5 -111t164.5 -282h-217q-18 99 -90 156.5
t-196 64.5v-797q120 7 189.5 68.5t100.5 185.5h217q-58 -218 -183.5 -317.5t-323.5 -108.5v-190h-111z" />
    <glyph glyph-name="sterling" unicode="&#xa3;" horiz-adv-x="1368" 
d="M86 637v123h129q-65 97 -65 244q0 84 34.5 162.5t102 143.5t180.5 104.5t256 39.5q266 0 412.5 -125.5t146.5 -347.5h-217q-6 134 -95.5 217.5t-260.5 83.5q-157 0 -249.5 -85t-92.5 -224q0 -44 15.5 -103t49.5 -110h432v-123h-385q37 -76 37 -154t-46.5 -162
t-127.5 -133l4 -4q93 37 195 37q73 0 219 -32.5t178 -32.5q139 0 287 104l57 -180q-153 -113 -336 -113q-15 0 -32.5 2t-31.5 4t-37.5 7t-35.5 8t-40.5 10t-39.5 10q-168 41 -260 41q-95 0 -171.5 -23t-117.5 -59l-94 170q113 65 169 144t56 186q0 84 -49 170h-176z" />
    <glyph glyph-name="currency" unicode="&#xa4;" horiz-adv-x="1368" 
d="M1020 711q0 145 -98 246.5t-238 101.5t-238 -101.5t-98 -246.5t98.5 -247t237.5 -102t237.5 102t98.5 247zM168 291l113 112q-105 137 -105 308q0 177 105 307l-113 112l98 99l113 -113q137 103 305 103t305 -103l113 113l98 -99l-113 -114q105 -134 105 -305t-105 -305
l113 -115l-98 -98l-115 114q-128 -104 -303 -104q-173 0 -305 104l-113 -114z" />
    <glyph glyph-name="yen" unicode="&#xa5;" horiz-adv-x="1368" 
d="M688 756l397 665h265l-459 -702h291v-123h-371l-18 -29v-149h389v-123h-389v-295h-218v295h-389v123h389v149l-18 29h-371v123h291l-454 702h276z" />
    <glyph glyph-name="brokenbar" unicode="&#xa6;" 
d="M141 -37v574h172v-574h-172zM141 926v573h172v-573h-172z" />
    <glyph glyph-name="section" unicode="&#xa7;" horiz-adv-x="1368" 
d="M178 10h205q23 -227 311 -227q131 0 201 45t70 125q0 59 -41.5 101t-143.5 83l-360 146q-104 42 -170.5 83t-101.5 88t-47.5 93t-12.5 110q0 84 57 164t160 113q-100 71 -100 215q0 109 63 189.5t168.5 120.5t239.5 40q132 0 236.5 -41t169.5 -128.5t65 -209.5h-205
q-12 207 -276 207q-256 0 -256 -164q0 -97 120 -145l482 -195q268 -108 268 -321q0 -60 -19 -113.5t-69 -105t-127 -84.5q104 -70 104 -226q0 -157 -126 -259.5t-345 -102.5q-122 0 -216.5 26.5t-150.5 67.5t-91.5 96t-48.5 105.5t-13 103.5zM543 442l403 -163
q66 20 103.5 67.5t37.5 108.5q0 66 -45.5 113.5t-150.5 90.5l-475 193q-62 -22 -98.5 -70.5t-36.5 -113.5q0 -64 54.5 -114t207.5 -112z" />
    <glyph glyph-name="dieresis" unicode="&#xa8;" 
d="M-121 1249v213h205v-213h-205zM371 1249v213h204v-213h-204z" />
    <glyph glyph-name="copyright" unicode="&#xa9;" horiz-adv-x="1638" 
d="M51 731q0 168 63 313t168.5 244t245 155t291.5 56t291.5 -56t245 -155t168.5 -244t63 -313t-63 -313t-168.5 -244t-245 -155t-291.5 -56t-291.5 56t-245 155t-168.5 244t-63 313zM1415 731q0 171 -80 311t-216.5 218.5t-299.5 78.5q-124 0 -234 -46.5t-189.5 -126.5
t-126 -193.5t-46.5 -241.5t46.5 -241.5t126 -193.5t189.5 -126.5t234 -46.5q163 0 299.5 78.5t216.5 218.5t80 311zM1047 598h172q-26 -151 -129 -238.5t-242 -87.5q-192 0 -312 132.5t-120 330.5q0 202 116 332.5t310 130.5q145 0 247 -83.5t123 -233.5h-165
q-15 71 -72.5 114t-136.5 43q-118 0 -184 -84t-66 -219q0 -130 70.5 -216.5t187.5 -86.5q80 0 135.5 44t65.5 122z" />
    <glyph glyph-name="ordfeminine" unicode="&#xaa;" horiz-adv-x="862" 
d="M203 1227h-135q12 122 98 174.5t252 52.5q61 0 114 -8t103.5 -26.5t80 -55t29.5 -88.5v-332q0 -49 60 -49q25 0 37 4v-92q-24 -1 -61 -5.5t-44 -4.5q-54 0 -84 19.5t-37 66.5q-38 -51 -122.5 -80t-174.5 -29q-67 0 -118 12.5t-81.5 31.5t-49.5 46.5t-26 54t-7 56.5
q0 89 67 137.5t224 63.5l155 14q60 5 87.5 18.5t27.5 44.5q0 52 -49 71t-135 19q-206 0 -211 -116zM598 1065v57h-4q-10 -16 -37 -23.5t-98 -17.5l-131 -18q-71 -10 -107.5 -30t-36.5 -58q0 -39 43.5 -64.5t108.5 -25.5q107 0 184.5 50t77.5 130z" />
    <glyph glyph-name="guillemotleft" unicode="&#xab;" horiz-adv-x="1138" 
d="M612 463v213l369 272v-207l-244 -172l244 -172v-207zM158 463v213l368 272v-207l-243 -172l243 -172v-207z" />
    <glyph glyph-name="logicalnot" unicode="&#xac;" horiz-adv-x="1228" 
d="M961 219v426h-865v172h1037v-598h-172z" />
    <glyph glyph-name="uni00AD" unicode="&#xad;" horiz-adv-x="985" 
d="M133 463v213h719v-213h-719z" />
    <glyph glyph-name="registered" unicode="&#xae;" horiz-adv-x="1638" 
d="M51 731q0 168 63 313t168.5 244t245 155t291.5 56t291.5 -56t245 -155t168.5 -244t63 -313t-63 -313t-168.5 -244t-245 -155t-291.5 -56t-291.5 56t-245 155t-168.5 244t-63 313zM1415 731q0 171 -80 311t-216.5 218.5t-299.5 78.5q-124 0 -234 -46.5t-189.5 -126.5
t-126 -193.5t-46.5 -241.5t46.5 -241.5t126 -193.5t189.5 -126.5t234 -46.5q163 0 299.5 78.5t216.5 218.5t80 311zM1026 293l-229 379h-138v-379h-147v876h342q166 0 248 -60t82 -191q0 -215 -238 -240l252 -385h-172zM659 795h158q49 0 80.5 4t63.5 16.5t47.5 40.5
t15.5 72q0 119 -195 119h-170v-252z" />
    <glyph glyph-name="macron" unicode="&#xaf;" 
d="M-174 1288v160h803v-160h-803z" />
    <glyph glyph-name="degree" unicode="&#xb0;" horiz-adv-x="819" 
d="M117 1161q0 121 85.5 207t207.5 86q121 0 206.5 -85.5t85.5 -207.5t-85.5 -207.5t-206.5 -85.5q-122 0 -207.5 86t-85.5 207zM592 1161q0 67 -57 124.5t-125 57.5t-125.5 -57.5t-57.5 -124.5t57.5 -124.5t125.5 -57.5t125 57.5t57 124.5z" />
    <glyph glyph-name="plusminus" unicode="&#xb1;" horiz-adv-x="1228" 
d="M528 725v311h172v-311h433v-172h-433v-311h-172v311h-432v172h432zM96 0v172h1037v-172h-1037z" />
    <glyph glyph-name="twosuperior" unicode="&#xb2;" horiz-adv-x="888" 
d="M238 1147h-160q0 142 90.5 224.5t273.5 82.5q173 0 262 -75t89 -197q0 -80 -39.5 -141t-102.5 -100t-128 -69t-130 -66t-96 -73h496v-147h-744q4 81 37.5 145t84 105t111 74t120 60.5t109 56t80 68t30.5 89.5q0 66 -52 100.5t-129 34.5q-96 0 -147.5 -49t-54.5 -123z" />
    <glyph glyph-name="threesuperior" unicode="&#xb3;" horiz-adv-x="888" 
d="M352 969v127q16 -2 88 -2q77 0 114.5 31.5t37.5 84.5q0 109 -172 109q-98 0 -140 -36t-47 -112h-159q7 141 101 212t249 71q168 0 254 -68t86 -167q0 -63 -35 -112t-104 -63v-4q77 -12 128.5 -67t51.5 -123q0 -35 -6.5 -69t-29.5 -75.5t-60.5 -72t-106.5 -51.5t-160 -21
q-393 0 -393 291h160q6 -92 58.5 -124t162.5 -32q100 0 151.5 34.5t51.5 96.5q0 67 -55 105.5t-148 38.5q-28 0 -52 -1t-26 -1z" />
    <glyph glyph-name="acute" unicode="&#xb4;" 
d="M104 1231l177 287h256l-269 -287h-164z" />
    <glyph glyph-name="mu" unicode="&#xb5;" horiz-adv-x="1329" 
d="M125 -414v1487h205v-690q0 -248 317 -248q148 0 250 84.5t102 235.5v618h205v-1073h-205v162h-4q-67 -104 -177.5 -151.5t-231.5 -47.5q-156 0 -256 84v-461h-205z" />
    <glyph glyph-name="paragraph" unicode="&#xb6;" horiz-adv-x="1228" 
d="M897 -352v1679h-227v-1679h-172v1057q-196 0 -317.5 104.5t-121.5 267.5q0 198 127 291.5t351 93.5h532v-1814h-172z" />
    <glyph glyph-name="periodcentered" unicode="&#xb7;" horiz-adv-x="684" 
d="M190 631q0 63 44.5 107t107.5 44t107.5 -44t44.5 -107t-44.5 -107.5t-107.5 -44.5t-107.5 44.5t-44.5 107.5z" />
    <glyph glyph-name="cedilla" unicode="&#xb8;" 
d="M156 -209l-37 39l102 170h105l-70 -117q7 1 30.5 4.5t39.5 3.5q78 0 130 -34t52 -99q0 -60 -38.5 -101t-91.5 -57t-116 -16q-64 0 -217 29l27 96q76 -26 153 -26q46 0 78.5 17t32.5 46q0 23 -22 41t-64 18q-40 0 -94 -14z" />
    <glyph glyph-name="onesuperior" unicode="&#xb9;" horiz-adv-x="591" 
d="M231 586v590h-247v122q47 0 80.5 2.5t70.5 12t61.5 25.5t43.5 45.5t26 70.5h137v-868h-172z" />
    <glyph glyph-name="ordmasculine" unicode="&#xba;" horiz-adv-x="911" 
d="M51 1114q0 146 105 243t299 97q195 0 300 -97t105 -243q0 -145 -105 -242.5t-300 -97.5q-193 0 -298.5 97.5t-105.5 242.5zM700 1112q0 38 -14 75t-42 70t-77 53.5t-112 20.5q-62 0 -111 -20.5t-77 -53.5t-42 -70t-14 -75q0 -37 14 -73.5t42 -69t77 -52.5t111 -20
q63 0 112 20t77 52.5t42 69t14 73.5z" />
    <glyph glyph-name="guillemotright" unicode="&#xbb;" horiz-adv-x="1138" 
d="M401 569l-243 172v207l368 -272v-213l-368 -273v207zM856 569l-244 172v207l369 -272v-213l-369 -273v207z" />
    <glyph glyph-name="onequarter" unicode="&#xbc;" horiz-adv-x="2048" 
d="M1645 0v190h-476v129l500 549h135v-542h148v-136h-148v-190h-159zM1645 326v333h-5l-292 -333h297zM297 586v590h-248v122q47 0 80.5 2.5t71 12t62 25.5t43.5 45.5t26 70.5h137v-868h-172zM403 -33l814 1487h172l-814 -1487h-172z" />
    <glyph glyph-name="onehalf" unicode="&#xbd;" horiz-adv-x="2048" 
d="M297 586v590h-248v122q47 0 80.5 2.5t71 12t62 25.5t43.5 45.5t26 70.5h137v-868h-172zM408 -33l813 1487h172l-813 -1487h-172zM1397 561h-160q0 141 91 224t274 83q173 0 261.5 -75t88.5 -197q0 -80 -39.5 -141t-102.5 -100t-128 -69t-130 -66t-96 -73h496v-147h-744
q4 81 37.5 145t84 105t111 74t120 60.5t109 56t80 68t30.5 89.5q0 66 -52 100.5t-129 34.5q-96 0 -147.5 -49t-54.5 -123z" />
    <glyph glyph-name="threequarters" unicode="&#xbe;" horiz-adv-x="2048" 
d="M1645 0v190h-476v129l500 549h135v-542h148v-136h-148v-190h-159zM1645 326v333h-5l-292 -333h297zM352 969v127q16 -2 88 -2q77 0 114.5 31.5t37.5 84.5q0 109 -172 109q-98 0 -140 -36t-47 -112h-159q7 141 101 212t249 71q168 0 254 -68t86 -167q0 -63 -35 -112
t-104 -63v-4q77 -12 128.5 -67t51.5 -123q0 -35 -6.5 -69t-29.5 -75.5t-60.5 -72t-106.5 -51.5t-160 -21q-393 0 -393 291h160q6 -92 58.5 -124t162.5 -32q100 0 151.5 34.5t51.5 96.5q0 67 -55 105.5t-148 38.5q-28 0 -52 -1t-26 -1zM543 -33l813 1487h172l-813 -1487h-172
z" />
    <glyph glyph-name="questiondown" unicode="&#xbf;" horiz-adv-x="1368" 
d="M1044 66h205q-5 -114 -43.5 -203t-94.5 -142t-131 -87.5t-145 -47t-145 -12.5q-106 0 -198.5 28.5t-164 82t-112.5 139t-41 192.5q0 76 26 141t67.5 110t92 85.5t100.5 76.5t91.5 72.5t67.5 84t26 102.5h193q0 -73 -19 -133t-50.5 -101t-72 -78t-82 -63.5t-82 -59
t-72 -63.5t-50.5 -76.5t-19 -99.5q0 -135 85.5 -201.5t221.5 -66.5q152 0 246 85t100 235zM614 836v237h254v-237h-254z" />
    <glyph glyph-name="Agrave" unicode="&#xc0;" horiz-adv-x="1554" 
d="M1049 614l-281 648l-274 -648h555zM1315 0l-187 426h-716l-187 -426h-233l661 1462h248l662 -1462h-248zM737 1559l-268 286h256l176 -286h-164z" />
    <glyph glyph-name="Aacute" unicode="&#xc1;" horiz-adv-x="1554" 
d="M1049 614l-281 648l-274 -648h555zM1315 0l-187 426h-716l-187 -426h-233l661 1462h248l662 -1462h-248zM655 1559l176 286h256l-268 -286h-164z" />
    <glyph glyph-name="Acircumflex" unicode="&#xc2;" horiz-adv-x="1554" 
d="M1049 614l-281 648l-274 -648h555zM1315 0l-187 426h-716l-187 -426h-233l661 1462h248l662 -1462h-248zM954 1559l-176 180l-176 -180h-199l267 286h217l266 -286h-199z" />
    <glyph glyph-name="Atilde" unicode="&#xc3;" horiz-adv-x="1554" 
d="M1049 614l-281 648l-274 -648h555zM1315 0l-187 426h-716l-187 -426h-233l661 1462h248l662 -1462h-248zM494 1575h-121q9 109 69 178q61 74 164 74q90 0 201 -49q98 -43 162 -43q76 0 94 92h121q-9 -110 -71 -181t-163 -71q-89 0 -200 49q-98 43 -162 43q-76 0 -94 -92z
" />
    <glyph glyph-name="Adieresis" unicode="&#xc4;" horiz-adv-x="1554" 
d="M1049 614l-281 648l-274 -648h555zM1315 0l-187 426h-716l-187 -426h-233l661 1462h248l662 -1462h-248zM430 1577v213h205v-213h-205zM922 1577v213h204v-213h-204z" />
    <glyph glyph-name="Aring" unicode="&#xc5;" horiz-adv-x="1554" 
d="M1049 614l-281 648l-274 -648h555zM1315 0l-187 426h-716l-187 -426h-233l661 1462h248l662 -1462h-248zM539 1733q0 100 69.5 169.5t169.5 69.5t170 -69.5t70 -169.5t-70 -170t-170 -70t-169.5 70t-69.5 170zM907 1733q0 51 -39 90t-90 39t-90 -39t-39 -90t39 -90
t90 -39t90 39t39 90z" />
    <glyph glyph-name="AE" unicode="&#xc6;" horiz-adv-x="2275" 
d="M1077 614v660h-102l-414 -660h516zM1077 0v426h-633l-266 -426h-246l922 1462h1323v-188h-895v-424h866v-188h-866v-474h905v-188h-1110z" />
    <glyph glyph-name="Ccedilla" unicode="&#xc7;" horiz-adv-x="1669" 
d="M1360 559h217q-12 -115 -64.5 -217.5t-136.5 -182.5t-203.5 -131.5t-259.5 -62.5l-49 -82q7 1 30.5 4.5t39.5 3.5q78 0 130 -34t52 -99q0 -60 -38.5 -101t-91.5 -57t-116 -16q-64 0 -217 29l27 96q76 -26 154 -26q45 0 77.5 17t32.5 46q0 23 -22 41t-64 18q-40 0 -94 -14
l-37 39l82 135q-112 4 -214 31.5t-197.5 87t-165.5 145.5t-112 216t-42 290q0 161 50 299.5t144.5 242t241.5 163t330 59.5q94 0 185.5 -16t188 -56.5t170.5 -102.5t126 -162t63 -226h-217q-27 164 -154.5 269.5t-345.5 105.5q-265 0 -415 -152.5t-150 -445.5
q0 -86 18.5 -164.5t60.5 -152t104.5 -127t157.5 -85.5t212 -32q200 0 334 100t178 307z" />
    <glyph glyph-name="Egrave" unicode="&#xc8;" horiz-adv-x="1441" 
d="M158 0v1462h1175v-188h-958v-424h930v-188h-930v-474h979v-188h-1196zM721 1559l-268 286h256l176 -286h-164z" />
    <glyph glyph-name="Eacute" unicode="&#xc9;" horiz-adv-x="1441" 
d="M158 0v1462h1175v-188h-958v-424h930v-188h-930v-474h979v-188h-1196zM639 1559l176 286h256l-268 -286h-164z" />
    <glyph glyph-name="Ecircumflex" unicode="&#xca;" horiz-adv-x="1441" 
d="M158 0v1462h1175v-188h-958v-424h930v-188h-930v-474h979v-188h-1196zM938 1559l-176 180l-176 -180h-199l266 286h217l267 -286h-199z" />
    <glyph glyph-name="Edieresis" unicode="&#xcb;" horiz-adv-x="1441" 
d="M158 0v1462h1175v-188h-958v-424h930v-188h-930v-474h979v-188h-1196zM414 1577v213h204v-213h-204zM905 1577v213h205v-213h-205z" />
    <glyph glyph-name="Igrave" unicode="&#xcc;" horiz-adv-x="569" 
d="M176 0v1462h217v-1462h-217zM244 1559l-269 286h256l177 -286h-164z" />
    <glyph glyph-name="Iacute" unicode="&#xcd;" horiz-adv-x="569" 
d="M176 0v1462h217v-1462h-217zM162 1559l176 286h256l-268 -286h-164z" />
    <glyph glyph-name="Icircumflex" unicode="&#xce;" horiz-adv-x="569" 
d="M176 0v1462h217v-1462h-217zM461 1559l-176 180l-176 -180h-199l266 286h217l266 -286h-198z" />
    <glyph glyph-name="Idieresis" unicode="&#xcf;" horiz-adv-x="569" 
d="M176 0v1462h217v-1462h-217zM-63 1577v213h204v-213h-204zM428 1577v213h205v-213h-205z" />
    <glyph glyph-name="Eth" unicode="&#xd0;" horiz-adv-x="1630" 
d="M158 858v604h741q161 0 284 -51t200 -145.5t116 -223.5t39 -290q0 -125 -21.5 -235t-70 -206t-120.5 -164t-178 -107.5t-237 -39.5h-753v711h-144v147h144zM375 858h471v-147h-471v-523h526q420 0 420 560q0 526 -461 526h-485v-416z" />
    <glyph glyph-name="Ntilde" unicode="&#xd1;" horiz-adv-x="1744" 
d="M1327 0l-940 1163h-4v-1163h-217v1462h252l940 -1163h4v1163h217v-1462h-252zM588 1575h-121q9 108 70 178q61 74 163 74q90 0 201 -49q98 -43 162 -43q76 0 94 92h121q-9 -110 -71 -181t-163 -71q-89 0 -200 49q-98 43 -162 43q-76 0 -94 -92z" />
    <glyph glyph-name="Ograve" unicode="&#xd2;" horiz-adv-x="1781" 
d="M78 731q0 116 27.5 224t90 208t154.5 174t231 118t310 44t310 -44t231 -118t154.5 -174t90 -208t27.5 -224t-27.5 -224t-90 -208t-154.5 -174t-231 -118t-310 -44t-310 44t-231 118t-154.5 174t-90 208t-27.5 224zM1487 731q0 142 -46 253.5t-127 182t-188.5 107.5
t-234.5 37t-234.5 -37t-188.5 -107.5t-127 -182t-46 -253.5q0 -141 46 -253t127 -182.5t188.5 -107t234.5 -36.5t234.5 36.5t188.5 107t127 182.5t46 253zM850 1559l-268 286h256l176 -286h-164z" />
    <glyph glyph-name="Oacute" unicode="&#xd3;" horiz-adv-x="1781" 
d="M78 731q0 116 27.5 224t90 208t154.5 174t231 118t310 44t310 -44t231 -118t154.5 -174t90 -208t27.5 -224t-27.5 -224t-90 -208t-154.5 -174t-231 -118t-310 -44t-310 44t-231 118t-154.5 174t-90 208t-27.5 224zM1487 731q0 142 -46 253.5t-127 182t-188.5 107.5
t-234.5 37t-234.5 -37t-188.5 -107.5t-127 -182t-46 -253.5q0 -141 46 -253t127 -182.5t188.5 -107t234.5 -36.5t234.5 36.5t188.5 107t127 182.5t46 253zM768 1559l176 286h256l-268 -286h-164z" />
    <glyph glyph-name="Ocircumflex" unicode="&#xd4;" horiz-adv-x="1781" 
d="M78 731q0 116 27.5 224t90 208t154.5 174t231 118t310 44t310 -44t231 -118t154.5 -174t90 -208t27.5 -224t-27.5 -224t-90 -208t-154.5 -174t-231 -118t-310 -44t-310 44t-231 118t-154.5 174t-90 208t-27.5 224zM1487 731q0 142 -46 253.5t-127 182t-188.5 107.5
t-234.5 37t-234.5 -37t-188.5 -107.5t-127 -182t-46 -253.5q0 -141 46 -253t127 -182.5t188.5 -107t234.5 -36.5t234.5 36.5t188.5 107t127 182.5t46 253zM1067 1559l-176 180l-176 -180h-199l266 286h217l267 -286h-199z" />
    <glyph glyph-name="Otilde" unicode="&#xd5;" horiz-adv-x="1781" 
d="M78 731q0 116 27.5 224t90 208t154.5 174t231 118t310 44t310 -44t231 -118t154.5 -174t90 -208t27.5 -224t-27.5 -224t-90 -208t-154.5 -174t-231 -118t-310 -44t-310 44t-231 118t-154.5 174t-90 208t-27.5 224zM1487 731q0 142 -46 253.5t-127 182t-188.5 107.5
t-234.5 37t-234.5 -37t-188.5 -107.5t-127 -182t-46 -253.5q0 -141 46 -253t127 -182.5t188.5 -107t234.5 -36.5t234.5 36.5t188.5 107t127 182.5t46 253zM606 1575h-121q9 108 70 178q61 74 164 74q90 0 201 -49q98 -43 161 -43q77 0 95 92h120q-9 -110 -70.5 -181
t-162.5 -71q-90 0 -201 49q-98 43 -162 43q-76 0 -94 -92z" />
    <glyph glyph-name="Odieresis" unicode="&#xd6;" horiz-adv-x="1781" 
d="M78 731q0 116 27.5 224t90 208t154.5 174t231 118t310 44t310 -44t231 -118t154.5 -174t90 -208t27.5 -224t-27.5 -224t-90 -208t-154.5 -174t-231 -118t-310 -44t-310 44t-231 118t-154.5 174t-90 208t-27.5 224zM1487 731q0 142 -46 253.5t-127 182t-188.5 107.5
t-234.5 37t-234.5 -37t-188.5 -107.5t-127 -182t-46 -253.5q0 -141 46 -253t127 -182.5t188.5 -107t234.5 -36.5t234.5 36.5t188.5 107t127 182.5t46 253zM543 1577v213h205v-213h-205zM1034 1577v213h205v-213h-205z" />
    <glyph glyph-name="multiply" unicode="&#xd7;" horiz-adv-x="1228" 
d="M500 518l-357 356l115 115l354 -356l359 356l114 -115l-358 -356l358 -356l-114 -115l-359 359l-354 -359l-115 115z" />
    <glyph glyph-name="Oslash" unicode="&#xd8;" horiz-adv-x="1781" 
d="M1368 1110l-879 -831q157 -127 402 -127q127 0 234.5 36.5t188.5 107t127 182.5t46 253q0 231 -119 379zM414 354l878 830q-157 127 -401 127q-127 0 -234.5 -37t-188.5 -107.5t-127 -182t-46 -253.5q0 -229 119 -377zM145 -45l-71 78l188 178q-93 103 -138.5 238.5
t-45.5 281.5q0 116 27.5 224t90 208t154.5 174t231 118t310 44q343 0 553 -172l190 180l74 -75l-188 -179q93 -105 138.5 -240.5t45.5 -281.5q0 -116 -27.5 -224t-90 -208t-154.5 -174t-231 -118t-310 -44q-345 0 -553 174z" />
    <glyph glyph-name="Ugrave" unicode="&#xd9;" horiz-adv-x="1630" 
d="M154 553v909h217v-936q0 -191 117 -282.5t327 -91.5t327.5 91.5t117.5 282.5v936h217v-909q0 -590 -662 -590q-661 0 -661 590zM774 1559l-268 286h256l176 -286h-164z" />
    <glyph glyph-name="Uacute" unicode="&#xda;" horiz-adv-x="1630" 
d="M154 553v909h217v-936q0 -191 117 -282.5t327 -91.5t327.5 91.5t117.5 282.5v936h217v-909q0 -590 -662 -590q-661 0 -661 590zM692 1559l176 286h256l-268 -286h-164z" />
    <glyph glyph-name="Ucircumflex" unicode="&#xdb;" horiz-adv-x="1630" 
d="M154 553v909h217v-936q0 -191 117 -282.5t327 -91.5t327.5 91.5t117.5 282.5v936h217v-909q0 -590 -662 -590q-661 0 -661 590zM991 1559l-176 180l-176 -180h-199l267 286h217l266 -286h-199z" />
    <glyph glyph-name="Udieresis" unicode="&#xdc;" horiz-adv-x="1630" 
d="M154 553v909h217v-936q0 -191 117 -282.5t327 -91.5t327.5 91.5t117.5 282.5v936h217v-909q0 -590 -662 -590q-661 0 -661 590zM467 1577v213h205v-213h-205zM958 1577v213h205v-213h-205z" />
    <glyph glyph-name="Yacute" unicode="&#xdd;" horiz-adv-x="1478" 
d="M741 797l486 665h264l-645 -850v-612h-217v602l-641 860h276zM616 1559l177 286h256l-269 -286h-164z" />
    <glyph glyph-name="Thorn" unicode="&#xde;" horiz-adv-x="1478" 
d="M166 0v1462h217v-248h537q241 0 365 -107t124 -312q0 -209 -124.5 -333t-350.5 -124h-551v-338h-217zM383 526h522q78 0 135 20.5t89.5 57.5t47.5 83t15 104q0 108 -63.5 171.5t-184.5 63.5h-561v-500z" />
    <glyph glyph-name="germandbls" unicode="&#xdf;" horiz-adv-x="1327" 
d="M569 719v172q27 -4 113 -4q147 0 213 59t66 160q0 107 -82 164t-213 57q-158 0 -237 -68t-79 -194v-1065h-205v1083q0 108 40 189.5t112 130t163.5 72.5t201.5 24q252 0 384 -109.5t132 -275.5q0 -62 -18 -115.5t-65 -101t-120 -72.5v-4q274 -74 274 -393
q0 -95 -35 -178.5t-100 -147.5t-167 -101.5t-228 -37.5q-55 0 -160 10v172q78 -10 125 -10q173 0 260.5 84t87.5 217q0 67 -24 121t-62.5 85.5t-82.5 49t-89 19.5z" />
    <glyph glyph-name="agrave" unicode="&#xe0;" horiz-adv-x="1327" 
d="M315 737h-192q20 196 152 284.5t380 88.5q72 0 136 -7.5t131.5 -28t116 -53.5t79.5 -88.5t31 -127.5v-578q0 -92 92 -92q32 0 72 8v-143q-73 -12 -160 -12q-84 0 -129 32t-55 117q-59 -80 -189.5 -127t-267.5 -47q-102 0 -181.5 20.5t-126.5 53t-77 77t-40.5 86
t-10.5 87.5q0 151 104 229t357 105l233 24q97 10 141.5 36t44.5 93q0 53 -24 89t-69.5 54.5t-96.5 25.5t-119 7q-324 0 -332 -213zM956 424v137q-23 -25 -66.5 -38.5t-133.5 -24.5l-232 -29q-126 -16 -184.5 -55t-58.5 -121q0 -75 68.5 -122.5t180.5 -47.5q177 0 301.5 85
t124.5 216zM623 1210l-269 287h256l176 -287h-163z" />
    <glyph glyph-name="aacute" unicode="&#xe1;" horiz-adv-x="1327" 
d="M315 737h-192q20 196 152 284.5t380 88.5q72 0 136 -7.5t131.5 -28t116 -53.5t79.5 -88.5t31 -127.5v-578q0 -92 92 -92q32 0 72 8v-143q-73 -12 -160 -12q-84 0 -129 32t-55 117q-59 -80 -189.5 -127t-267.5 -47q-102 0 -181.5 20.5t-126.5 53t-77 77t-40.5 86
t-10.5 87.5q0 151 104 229t357 105l233 24q97 10 141.5 36t44.5 93q0 53 -24 89t-69.5 54.5t-96.5 25.5t-119 7q-324 0 -332 -213zM956 424v137q-23 -25 -66.5 -38.5t-133.5 -24.5l-232 -29q-126 -16 -184.5 -55t-58.5 -121q0 -75 68.5 -122.5t180.5 -47.5q177 0 301.5 85
t124.5 216zM541 1210l176 287h256l-268 -287h-164z" />
    <glyph glyph-name="acircumflex" unicode="&#xe2;" horiz-adv-x="1327" 
d="M315 737h-192q20 196 152 284.5t380 88.5q72 0 136 -7.5t131.5 -28t116 -53.5t79.5 -88.5t31 -127.5v-578q0 -92 92 -92q32 0 72 8v-143q-73 -12 -160 -12q-84 0 -129 32t-55 117q-59 -80 -189.5 -127t-267.5 -47q-102 0 -181.5 20.5t-126.5 53t-77 77t-40.5 86
t-10.5 87.5q0 151 104 229t357 105l233 24q97 10 141.5 36t44.5 93q0 53 -24 89t-69.5 54.5t-96.5 25.5t-119 7q-324 0 -332 -213zM956 424v137q-23 -25 -66.5 -38.5t-133.5 -24.5l-232 -29q-126 -16 -184.5 -55t-58.5 -121q0 -75 68.5 -122.5t180.5 -47.5q177 0 301.5 85
t124.5 216zM840 1210l-176 181l-177 -181h-198l266 287h217l266 -287h-198z" />
    <glyph glyph-name="atilde" unicode="&#xe3;" horiz-adv-x="1327" 
d="M315 737h-192q20 196 152 284.5t380 88.5q72 0 136 -7.5t131.5 -28t116 -53.5t79.5 -88.5t31 -127.5v-578q0 -92 92 -92q32 0 72 8v-143q-73 -12 -160 -12q-84 0 -129 32t-55 117q-59 -80 -189.5 -127t-267.5 -47q-102 0 -181.5 20.5t-126.5 53t-77 77t-40.5 86
t-10.5 87.5q0 151 104 229t357 105l233 24q97 10 141.5 36t44.5 93q0 53 -24 89t-69.5 54.5t-96.5 25.5t-119 7q-324 0 -332 -213zM956 424v137q-23 -25 -66.5 -38.5t-133.5 -24.5l-232 -29q-126 -16 -184.5 -55t-58.5 -121q0 -75 68.5 -122.5t180.5 -47.5q177 0 301.5 85
t124.5 216zM379 1227h-121q9 108 70 178q61 74 164 74q89 0 200 -49q100 -44 162 -44q76 0 94 93h121q-9 -110 -70.5 -181t-162.5 -71q-90 0 -201 49q-98 43 -162 43q-76 0 -94 -92z" />
    <glyph glyph-name="adieresis" unicode="&#xe4;" horiz-adv-x="1327" 
d="M315 737h-192q20 196 152 284.5t380 88.5q72 0 136 -7.5t131.5 -28t116 -53.5t79.5 -88.5t31 -127.5v-578q0 -92 92 -92q32 0 72 8v-143q-73 -12 -160 -12q-84 0 -129 32t-55 117q-59 -80 -189.5 -127t-267.5 -47q-102 0 -181.5 20.5t-126.5 53t-77 77t-40.5 86
t-10.5 87.5q0 151 104 229t357 105l233 24q97 10 141.5 36t44.5 93q0 53 -24 89t-69.5 54.5t-96.5 25.5t-119 7q-324 0 -332 -213zM956 424v137q-23 -25 -66.5 -38.5t-133.5 -24.5l-232 -29q-126 -16 -184.5 -55t-58.5 -121q0 -75 68.5 -122.5t180.5 -47.5q177 0 301.5 85
t124.5 216zM315 1229v213h205v-213h-205zM807 1229v213h205v-213h-205z" />
    <glyph glyph-name="aring" unicode="&#xe5;" horiz-adv-x="1327" 
d="M315 737h-192q20 196 152 284.5t380 88.5q72 0 136 -7.5t131.5 -28t116 -53.5t79.5 -88.5t31 -127.5v-578q0 -92 92 -92q32 0 72 8v-143q-73 -12 -160 -12q-84 0 -129 32t-55 117q-59 -80 -189.5 -127t-267.5 -47q-102 0 -181.5 20.5t-126.5 53t-77 77t-40.5 86
t-10.5 87.5q0 151 104 229t357 105l233 24q97 10 141.5 36t44.5 93q0 53 -24 89t-69.5 54.5t-96.5 25.5t-119 7q-324 0 -332 -213zM956 424v137q-23 -25 -66.5 -38.5t-133.5 -24.5l-232 -29q-126 -16 -184.5 -55t-58.5 -121q0 -75 68.5 -122.5t180.5 -47.5q177 0 301.5 85
t124.5 216zM424 1405q0 100 70 170t170 70t169.5 -70t69.5 -170t-69.5 -170t-169.5 -70t-170 70t-70 170zM793 1405q0 51 -39 90t-90 39t-90 -39t-39 -90t39 -90t90 -39t90 39t39 90z" />
    <glyph glyph-name="ae" unicode="&#xe6;" horiz-adv-x="2199" 
d="M2116 475h-967q21 -170 110.5 -255t266.5 -85q105 0 200.5 44t143.5 147h217q-37 -93 -99 -165t-137 -114t-155 -63t-162 -21q-77 0 -140 9t-131.5 32.5t-127.5 72t-105 120.5q-17 -28 -42.5 -56t-71 -61.5t-100.5 -58t-134.5 -41.5t-169.5 -17q-102 0 -181.5 20.5
t-126.5 53t-77 77t-40.5 86t-10.5 87.5q0 153 101.5 231.5t346.5 102.5l246 24q97 10 141.5 36t44.5 93q0 53 -24 89t-69.5 54.5t-96.5 25.5t-119 7q-324 0 -332 -213h-192q20 196 152 284.5t380 88.5q320 0 457 -180q73 90 185.5 135t238.5 45q181 0 313.5 -78.5
t199.5 -215t67 -314.5v-27zM1149 635h749q-23 143 -124.5 223t-249.5 80q-144 0 -248 -80.5t-127 -222.5zM956 424v96q-109 -28 -200 -35l-203 -14q-139 -11 -205.5 -53t-66.5 -125q0 -75 68.5 -122.5t180.5 -47.5q177 0 301.5 85t124.5 216z" />
    <glyph glyph-name="ccedilla" unicode="&#xe7;" horiz-adv-x="1290" 
d="M1004 393h217q-58 -215 -182 -315t-316 -111l-49 -84q7 1 30 4.5t39 3.5q78 0 130.5 -34t52.5 -99q0 -60 -38.5 -101t-91.5 -57t-116 -16q-64 0 -217 29l26 96q76 -26 154 -26q46 0 78.5 17t32.5 46q0 23 -22 41t-64 18q-41 0 -95 -14l-36 39l81 135q-114 5 -206.5 39.5
t-153.5 88.5t-102.5 126.5t-59.5 149.5t-18 161q0 120 37 224.5t107.5 184t183 125.5t253.5 46q146 0 262.5 -42.5t195.5 -132.5t100 -220h-218q-19 106 -102 164.5t-223 58.5q-127 0 -214 -53.5t-126 -141.5t-39 -206q0 -181 95.5 -291.5t283.5 -110.5q138 0 217 62
t113 196z" />
    <glyph glyph-name="egrave" unicode="&#xe8;" horiz-adv-x="1366" 
d="M1282 475h-987q6 -80 43 -146t92.5 -107.5t123 -64t136.5 -22.5q106 0 202 44t144 147h217q-37 -93 -99 -165t-137 -114t-155 -63t-162 -21q-152 0 -272.5 46t-196 125.5t-114.5 182t-39 220.5t39 220.5t114.5 181.5t196 125t272.5 46q88 0 169.5 -20t157.5 -66.5
t132 -115t89.5 -173t33.5 -233.5v-27zM301 635h764q-23 143 -125 223t-250 80q-146 0 -256 -81.5t-133 -221.5zM643 1210l-268 287h256l176 -287h-164z" />
    <glyph glyph-name="eacute" unicode="&#xe9;" horiz-adv-x="1366" 
d="M1282 475h-987q6 -80 43 -146t92.5 -107.5t123 -64t136.5 -22.5q106 0 202 44t144 147h217q-37 -93 -99 -165t-137 -114t-155 -63t-162 -21q-152 0 -272.5 46t-196 125.5t-114.5 182t-39 220.5t39 220.5t114.5 181.5t196 125t272.5 46q88 0 169.5 -20t157.5 -66.5
t132 -115t89.5 -173t33.5 -233.5v-27zM301 635h764q-23 143 -125 223t-250 80q-146 0 -256 -81.5t-133 -221.5zM561 1210l176 287h256l-268 -287h-164z" />
    <glyph glyph-name="ecircumflex" unicode="&#xea;" horiz-adv-x="1366" 
d="M1282 475h-987q6 -80 43 -146t92.5 -107.5t123 -64t136.5 -22.5q106 0 202 44t144 147h217q-37 -93 -99 -165t-137 -114t-155 -63t-162 -21q-152 0 -272.5 46t-196 125.5t-114.5 182t-39 220.5t39 220.5t114.5 181.5t196 125t272.5 46q88 0 169.5 -20t157.5 -66.5
t132 -115t89.5 -173t33.5 -233.5v-27zM301 635h764q-23 143 -125 223t-250 80q-146 0 -256 -81.5t-133 -221.5zM860 1210l-176 181l-176 -181h-199l266 287h218l266 -287h-199z" />
    <glyph glyph-name="edieresis" unicode="&#xeb;" horiz-adv-x="1366" 
d="M1282 475h-987q6 -80 43 -146t92.5 -107.5t123 -64t136.5 -22.5q106 0 202 44t144 147h217q-37 -93 -99 -165t-137 -114t-155 -63t-162 -21q-152 0 -272.5 46t-196 125.5t-114.5 182t-39 220.5t39 220.5t114.5 181.5t196 125t272.5 46q88 0 169.5 -20t157.5 -66.5
t132 -115t89.5 -173t33.5 -233.5v-27zM301 635h764q-23 143 -125 223t-250 80q-146 0 -256 -81.5t-133 -221.5zM336 1229v213h205v-213h-205zM827 1229v213h205v-213h-205z" />
    <glyph glyph-name="igrave" unicode="&#xec;" 
d="M125 0v1073h205v-1073h-205zM186 1210l-268 287h256l176 -287h-164z" />
    <glyph glyph-name="iacute" unicode="&#xed;" 
d="M125 0v1073h205v-1073h-205zM104 1210l177 287h256l-269 -287h-164z" />
    <glyph glyph-name="icircumflex" unicode="&#xee;" 
d="M125 0v1073h205v-1073h-205zM403 1210l-176 181l-176 -181h-198l266 287h217l266 -287h-199z" />
    <glyph glyph-name="idieresis" unicode="&#xef;" 
d="M125 0v1073h205v-1073h-205zM-121 1229v213h205v-213h-205zM371 1229v213h204v-213h-204z" />
    <glyph glyph-name="eth" unicode="&#xf0;" horiz-adv-x="1400" 
d="M1106 537q0 77 -22.5 145.5t-68.5 127.5t-127 93.5t-188 34.5q-86 0 -156 -23t-115.5 -61.5t-76 -91t-44 -108.5t-13.5 -117q0 -77 22.5 -146t68 -127.5t126.5 -93.5t188 -35t188 35t127 93.5t68.5 127.5t22.5 146zM289 1241l229 102q-91 42 -207 78l142 115
q135 -46 256 -109l243 109l84 -74l-221 -98q245 -159 376.5 -370.5t131.5 -440.5q0 -128 -39 -234.5t-115 -186.5t-196 -124.5t-273 -44.5q-152 0 -272.5 46t-196 125.5t-114.5 182t-39 220.5q0 158 79 290t215.5 207.5t301.5 75.5q169 0 274 -96l4 4q-130 156 -317 266
l-264 -117z" />
    <glyph glyph-name="ntilde" unicode="&#xf1;" horiz-adv-x="1329" 
d="M125 0v1073h205v-162h4q67 105 179 152t241 47q205 0 327.5 -93.5t122.5 -285.5v-731h-205v690q0 248 -317 248q-148 0 -250 -84.5t-102 -235.5v-618h-205zM381 1227h-121q9 108 70 178q61 74 164 74q89 0 200 -49q100 -44 162 -44q76 0 94 93h121q-9 -110 -70.5 -181
t-162.5 -71q-90 0 -201 49q-98 43 -162 43q-76 0 -94 -92z" />
    <glyph glyph-name="ograve" unicode="&#xf2;" horiz-adv-x="1400" 
d="M78 537q0 118 39 220.5t114.5 181.5t196 125t272.5 46t273 -46t196 -125t114.5 -181.5t39.5 -220.5t-39.5 -220.5t-114.5 -182t-196 -125.5t-273 -46t-272.5 46t-196 125.5t-114.5 182t-39 220.5zM1106 537q0 77 -22.5 145.5t-68.5 127.5t-127 93.5t-188 34.5
q-86 0 -156 -23t-115.5 -61.5t-76 -91t-44 -108.5t-13.5 -117q0 -77 22.5 -146t68 -127.5t126.5 -93.5t188 -35t188 35t127 93.5t68.5 127.5t22.5 146zM659 1210l-268 287h256l176 -287h-164z" />
    <glyph glyph-name="oacute" unicode="&#xf3;" horiz-adv-x="1400" 
d="M78 537q0 118 39 220.5t114.5 181.5t196 125t272.5 46t273 -46t196 -125t114.5 -181.5t39.5 -220.5t-39.5 -220.5t-114.5 -182t-196 -125.5t-273 -46t-272.5 46t-196 125.5t-114.5 182t-39 220.5zM1106 537q0 77 -22.5 145.5t-68.5 127.5t-127 93.5t-188 34.5
q-86 0 -156 -23t-115.5 -61.5t-76 -91t-44 -108.5t-13.5 -117q0 -77 22.5 -146t68 -127.5t126.5 -93.5t188 -35t188 35t127 93.5t68.5 127.5t22.5 146zM578 1210l176 287h256l-269 -287h-163z" />
    <glyph glyph-name="ocircumflex" unicode="&#xf4;" horiz-adv-x="1400" 
d="M78 537q0 118 39 220.5t114.5 181.5t196 125t272.5 46t273 -46t196 -125t114.5 -181.5t39.5 -220.5t-39.5 -220.5t-114.5 -182t-196 -125.5t-273 -46t-272.5 46t-196 125.5t-114.5 182t-39 220.5zM1106 537q0 77 -22.5 145.5t-68.5 127.5t-127 93.5t-188 34.5
q-86 0 -156 -23t-115.5 -61.5t-76 -91t-44 -108.5t-13.5 -117q0 -77 22.5 -146t68 -127.5t126.5 -93.5t188 -35t188 35t127 93.5t68.5 127.5t22.5 146zM877 1210l-177 181l-176 -181h-198l266 287h217l266 -287h-198z" />
    <glyph glyph-name="otilde" unicode="&#xf5;" horiz-adv-x="1400" 
d="M78 537q0 118 39 220.5t114.5 181.5t196 125t272.5 46t273 -46t196 -125t114.5 -181.5t39.5 -220.5t-39.5 -220.5t-114.5 -182t-196 -125.5t-273 -46t-272.5 46t-196 125.5t-114.5 182t-39 220.5zM1106 537q0 77 -22.5 145.5t-68.5 127.5t-127 93.5t-188 34.5
q-86 0 -156 -23t-115.5 -61.5t-76 -91t-44 -108.5t-13.5 -117q0 -77 22.5 -146t68 -127.5t126.5 -93.5t188 -35t188 35t127 93.5t68.5 127.5t22.5 146zM416 1227h-121q9 108 70 178q61 74 163 74q90 0 201 -49q100 -44 162 -44q76 0 94 93h121q-9 -110 -71 -181t-163 -71
q-89 0 -200 49q-98 43 -162 43q-76 0 -94 -92z" />
    <glyph glyph-name="odieresis" unicode="&#xf6;" horiz-adv-x="1400" 
d="M78 537q0 118 39 220.5t114.5 181.5t196 125t272.5 46t273 -46t196 -125t114.5 -181.5t39.5 -220.5t-39.5 -220.5t-114.5 -182t-196 -125.5t-273 -46t-272.5 46t-196 125.5t-114.5 182t-39 220.5zM1106 537q0 77 -22.5 145.5t-68.5 127.5t-127 93.5t-188 34.5
q-86 0 -156 -23t-115.5 -61.5t-76 -91t-44 -108.5t-13.5 -117q0 -77 22.5 -146t68 -127.5t126.5 -93.5t188 -35t188 35t127 93.5t68.5 127.5t22.5 146zM352 1229v213h205v-213h-205zM844 1229v213h205v-213h-205z" />
    <glyph glyph-name="divide" unicode="&#xf7;" horiz-adv-x="1228" 
d="M471 942q0 58 42.5 100.5t100.5 42.5q59 0 101.5 -42.5t42.5 -100.5t-42.5 -100.5t-101.5 -42.5q-58 0 -100.5 42.5t-42.5 100.5zM471 94q0 59 42.5 101.5t100.5 42.5t101 -43t43 -101t-42.5 -100.5t-101.5 -42.5q-58 0 -100.5 42.5t-42.5 100.5zM96 432v172h1037v-172
h-1037z" />
    <glyph glyph-name="oslash" unicode="&#xf8;" horiz-adv-x="1400" 
d="M1032 786l-604 -563q101 -88 272 -88q107 0 188 35t127 93.5t68.5 127.5t22.5 146q0 145 -74 249zM369 287l604 563q-106 88 -273 88q-86 0 -156 -23t-115.5 -61.5t-76 -91t-44 -108.5t-13.5 -117q0 -148 74 -250zM1116 983l148 137l59 -63l-141 -131q141 -153 141 -389
q0 -118 -39.5 -220.5t-114.5 -182t-196 -125.5t-273 -46q-259 0 -415 127l-148 -137l-59 63l143 134q-143 152 -143 387q0 118 39 220.5t114.5 181.5t196 125t272.5 46q254 0 416 -127z" />
    <glyph glyph-name="ugrave" unicode="&#xf9;" horiz-adv-x="1329" 
d="M1204 1073v-1073h-205v162h-4q-67 -105 -179 -152t-241 -47q-205 0 -327.5 93.5t-122.5 285.5v731h205v-690q0 -248 317 -248q148 0 250 84.5t102 235.5v618h205zM625 1210l-269 287h256l176 -287h-163z" />
    <glyph glyph-name="uacute" unicode="&#xfa;" horiz-adv-x="1329" 
d="M1204 1073v-1073h-205v162h-4q-67 -105 -179 -152t-241 -47q-205 0 -327.5 93.5t-122.5 285.5v731h205v-690q0 -248 317 -248q148 0 250 84.5t102 235.5v618h205zM543 1210l176 287h256l-268 -287h-164z" />
    <glyph glyph-name="ucircumflex" unicode="&#xfb;" horiz-adv-x="1329" 
d="M1204 1073v-1073h-205v162h-4q-67 -105 -179 -152t-241 -47q-205 0 -327.5 93.5t-122.5 285.5v731h205v-690q0 -248 317 -248q148 0 250 84.5t102 235.5v618h205zM842 1210l-176 181l-177 -181h-198l266 287h217l266 -287h-198z" />
    <glyph glyph-name="udieresis" unicode="&#xfc;" horiz-adv-x="1329" 
d="M1204 1073v-1073h-205v162h-4q-67 -105 -179 -152t-241 -47q-205 0 -327.5 93.5t-122.5 285.5v731h205v-690q0 -248 317 -248q148 0 250 84.5t102 235.5v618h205zM317 1229v213h205v-213h-205zM809 1229v213h205v-213h-205z" />
    <glyph glyph-name="yacute" unicode="&#xfd;" horiz-adv-x="1175" 
d="M594 225l362 848h230l-561 -1257q-39 -86 -74 -137.5t-80 -81t-94 -39t-125 -9.5q-37 0 -156 9v172q11 -1 51 -5t68 -4q94 0 133.5 30t89.5 134l47 99l-495 1089h235zM465 1210l176 287h256l-268 -287h-164z" />
    <glyph glyph-name="thorn" unicode="&#xfe;" horiz-adv-x="1402" 
d="M125 -414v1889h205v-551h4q58 82 171 128t236 46q122 0 228 -38.5t185.5 -110t125 -179.5t45.5 -240q0 -175 -79 -305.5t-210 -196t-295 -65.5q-126 0 -237 45t-170 129h-4v-551h-205zM1108 530q0 79 -23 148t-69 125.5t-123.5 89.5t-177.5 33q-101 0 -179.5 -33
t-125 -89.5t-70 -125.5t-23.5 -148q0 -183 108.5 -289t289.5 -106q180 0 286.5 106t106.5 289z" />
    <glyph glyph-name="ydieresis" unicode="&#xff;" horiz-adv-x="1175" 
d="M594 225l362 848h230l-561 -1257q-39 -86 -74 -137.5t-80 -81t-94 -39t-125 -9.5q-37 0 -156 9v172q11 -1 51 -5t68 -4q94 0 133.5 30t89.5 134l47 99l-495 1089h235zM240 1229v213h204v-213h-204zM731 1229v213h205v-213h-205z" />
    <glyph glyph-name="dotlessi" unicode="&#x131;" 
d="M125 0v1073h205v-1073h-205z" />
    <glyph glyph-name="Lslash" unicode="&#x141;" horiz-adv-x="1290" 
d="M383 778l430 295v-172l-430 -295v-418h889v-188h-1106v459l-160 -111v172l160 111v831h217v-684z" />
    <glyph glyph-name="lslash" unicode="&#x142;" 
d="M330 889l112 86v-172l-112 -86v-717h-205v561l-113 -86v172l113 86v742h205v-586z" />
    <glyph glyph-name="OE" unicode="&#x152;" horiz-adv-x="2390" 
d="M1231 461v569q0 38 -28.5 85t-78.5 91.5t-132 74.5t-177 30q-69 0 -134 -15.5t-132 -57t-116 -104.5t-80 -167t-31 -236q0 -111 21.5 -202t59 -152.5t85 -106.5t104.5 -70t111.5 -36.5t111.5 -11.5q86 0 166 31.5t133.5 78.5t85 100.5t31.5 98.5zM1237 0v166h-4
q-78 -101 -192.5 -152t-252.5 -51q-135 0 -249 44.5t-193 119t-134.5 174t-81.5 208.5t-26 222t26 222t81.5 208.5t134.5 174t193 119t249 44.5q145 0 260.5 -47t188.5 -133v143h1049v-188h-850v-424h821v-188h-821v-474h866v-188h-1065z" />
    <glyph glyph-name="oe" unicode="&#x153;" horiz-adv-x="2275" 
d="M2214 475h-954q6 -93 40.5 -161.5t87.5 -106t111 -55t123 -17.5q106 0 202 44t144 147h217q-37 -93 -99 -165t-137 -114t-155 -63t-162 -21q-159 0 -277.5 49.5t-201.5 163.5q-77 -102 -198.5 -157.5t-272.5 -55.5q-155 0 -273.5 45.5t-189 125.5t-106 181.5t-35.5 221.5
q0 174 81 306t217 199.5t306 67.5q317 0 485 -221q173 221 467 221q181 0 313.5 -78.5t199.5 -215t67 -314.5v-27zM1067 547q0 181 -110.5 286t-272.5 105q-185 0 -287 -112.5t-102 -290.5q0 -175 105.5 -287.5t275.5 -112.5q97 0 173 33t123 90.5t71 130.5t24 158z
M1260 635h737q-23 143 -125 223t-250 80q-144 0 -241.5 -79t-120.5 -224z" />
    <glyph glyph-name="Scaron" unicode="&#x160;" horiz-adv-x="1366" 
d="M33 481h217q1 -76 29.5 -134.5t74 -94.5t108 -59t125.5 -32t134 -9q178 0 286.5 65t108.5 182q0 95 -68.5 144.5t-203.5 72.5l-332 56q-43 7 -79 15t-82.5 23.5t-83 34.5t-73 49t-61 65.5t-40 86t-15.5 109.5q0 203 154.5 323.5t431.5 120.5q92 0 175.5 -13.5t164 -47
t140 -84.5t98 -131.5t44.5 -182.5h-217q-6 40 -18 73t-42 71.5t-75 65t-121.5 44t-177.5 17.5q-63 0 -121 -14t-108.5 -41.5t-80.5 -75t-30 -109.5q0 -151 240 -192l358 -62q37 -7 61.5 -11.5t75 -19t86 -31t79.5 -46.5t71.5 -65.5t47 -87.5t19.5 -114q0 -108 -37.5 -192.5
t-98 -137.5t-144.5 -87.5t-169 -48t-179 -13.5q-73 0 -141 7.5t-136.5 25t-126 44.5t-108 68t-85.5 93.5t-55 124t-20 155.5zM725 1665l176 180h199l-266 -286h-218l-266 286h199z" />
    <glyph glyph-name="scaron" unicode="&#x161;" horiz-adv-x="1214" 
d="M63 338h205q0 -39 17 -74.5t53.5 -68.5t105.5 -52.5t162 -19.5q76 0 135 10.5t94.5 26.5t58.5 39t31.5 45t8.5 47q0 60 -42.5 93.5t-160.5 49.5l-338 45q-123 16 -207 91t-84 194q0 162 131.5 254t358.5 92q252 0 381 -97t143 -263h-205q-5 87 -87 143.5t-234 56.5
q-53 0 -100 -8t-90 -26t-68 -51.5t-25 -78.5q0 -57 37 -88t141 -45l291 -39q198 -27 286.5 -97t88.5 -187q0 -183 -143 -275t-396 -92q-521 0 -549 375zM608 1317l176 180h199l-266 -287h-217l-267 287h199z" />
    <glyph glyph-name="Ydieresis" unicode="&#x178;" horiz-adv-x="1478" 
d="M741 797l486 665h264l-645 -850v-612h-217v602l-641 860h276zM391 1577v213h205v-213h-205zM883 1577v213h204v-213h-204z" />
    <glyph glyph-name="Zcaron" unicode="&#x17d;" horiz-adv-x="1402" 
d="M29 0v195l1044 1079h-971v188h1256v-188l-1049 -1086h1065v-188h-1345zM702 1665l177 180h198l-266 -286h-217l-266 286h198z" />
    <glyph glyph-name="zcaron" unicode="&#x17e;" horiz-adv-x="1214" 
d="M55 0v168l791 733h-752v172h1034v-160l-800 -741h831v-172h-1104zM608 1317l176 180h199l-266 -287h-217l-267 287h199z" />
    <glyph glyph-name="florin" unicode="&#x192;" horiz-adv-x="1368" 
d="M547 780l74 357q19 91 51.5 154.5t78 98t97 49.5t117.5 15q32 0 66 -2.5t80 -7t65 -6.5l-35 -168q-94 12 -140 12q-82 0 -123.5 -42t-66.5 -167l-59 -293h280l-28 -123h-279l-152 -774q-26 -132 -119.5 -208t-248.5 -76q-85 0 -187 20l35 164q91 -25 131 -25
q78 0 126.5 42.5t72.5 166.5l137 690h-270l24 123h273z" />
    <glyph glyph-name="circumflex" unicode="&#x2c6;" 
d="M403 1231l-176 180l-176 -180h-198l266 287h217l266 -287h-199z" />
    <glyph glyph-name="caron" unicode="&#x2c7;" 
d="M227 1337l176 181h199l-266 -287h-217l-266 287h198z" />
    <glyph glyph-name="uni02C9" unicode="&#x2c9;" 
d="M-174 1288v160h803v-160h-803z" />
    <glyph glyph-name="breve" unicode="&#x2d8;" 
d="M-129 1516h135q10 -72 67.5 -109t153.5 -37t154 37t68 109h135q-5 -99 -56.5 -167t-128 -97t-172.5 -29q-71 0 -132 17t-110.5 51.5t-79.5 92t-34 132.5z" />
    <glyph glyph-name="dotaccent" unicode="&#x2d9;" 
d="M125 1249v213h205v-213h-205z" />
    <glyph glyph-name="ring" unicode="&#x2da;" 
d="M-12 1405q0 100 69.5 170t169.5 70t170 -70t70 -170t-70 -170t-170 -70t-169.5 70t-69.5 170zM356 1405q0 51 -39 90t-90 39t-90 -39t-39 -90t39 -90t90 -39t90 39t39 90z" />
    <glyph glyph-name="ogonek" unicode="&#x2db;" 
d="M227 0h111q-81 -41 -137 -102t-56 -127q0 -44 27.5 -65t71.5 -21q70 0 168 20l24 -72q-100 -34 -209 -34q-217 0 -217 159q0 45 23 87.5t59 72.5t70 50t65 32z" />
    <glyph glyph-name="tilde" unicode="&#x2dc;" 
d="M-57 1247h-121q9 109 69 178q61 74 164 74q90 0 201 -49q98 -43 162 -43q76 0 94 92h121q-9 -110 -71 -181t-163 -71q-89 0 -200 49q-98 43 -162 43q-76 0 -94 -92z" />
    <glyph glyph-name="hungarumlaut" unicode="&#x2dd;" 
d="M350 1231l176 287h256l-268 -287h-164zM-141 1231l176 287h256l-268 -287h-164z" />
    <glyph glyph-name="uni03A9" unicode="&#x3a9;" horiz-adv-x="1783" 
d="M483 143v7q-143 99 -237 256.5t-94 361.5q0 144 57 271.5t156 218.5t237 143.5t295 52.5q162 0 301.5 -57t233 -152t146 -218t52.5 -255q0 -108 -28.5 -207t-77 -176.5t-106.5 -136.5t-124 -102v-7h369v-143h-602v109q76 39 141 95t119.5 133.5t85.5 182t31 225.5
q0 81 -22.5 161.5t-68 153.5t-109 129t-152 89t-189.5 33q-162 0 -289.5 -78t-195.5 -208.5t-68 -287.5q0 -218 110 -384.5t269 -243.5v-109h-604v143h364z" />
    <glyph glyph-name="uni03BC" unicode="&#x3bc;" horiz-adv-x="1329" 
d="M125 -414v1487h205v-690q0 -248 317 -248q148 0 250 84.5t102 235.5v618h205v-1073h-205v162h-4q-67 -104 -177.5 -151.5t-231.5 -47.5q-156 0 -256 84v-461h-205z" />
    <glyph glyph-name="pi" unicode="&#x3c0;" horiz-adv-x="1390" 
d="M1329 918h-194v-592q0 -208 32 -326h-186q-39 51 -39 305v613h-434q-12 -221 -62.5 -507.5t-109.5 -410.5h-191q63 151 112.5 426.5t59.5 491.5q-189 0 -274 -31l-27 119q94 59 351 59h981z" />
    <glyph glyph-name="uni2010" unicode="&#x2010;" horiz-adv-x="985" 
d="M133 463v213h719v-213h-719z" />
    <glyph glyph-name="endash" unicode="&#x2013;" horiz-adv-x="1024" 
d="M0 483v172h1024v-172h-1024z" />
    <glyph glyph-name="emdash" unicode="&#x2014;" horiz-adv-x="2048" 
d="M0 483v172h2048v-172h-2048z" />
    <glyph glyph-name="quoteleft" unicode="&#x2018;" horiz-adv-x="684" 
d="M215 911v209q0 84 24.5 153t83.5 121.5t146 67.5v-100q-63 -19 -91.5 -66t-31.5 -147h123v-238h-254z" />
    <glyph glyph-name="quoteright" unicode="&#x2019;" horiz-adv-x="684" 
d="M215 911v101q63 19 91.5 66t31.5 147h-123v237h254v-209q0 -84 -24.5 -153t-83.5 -121.5t-146 -67.5z" />
    <glyph glyph-name="quotesinglbase" unicode="&#x201a;" horiz-adv-x="684" 
d="M215 -313v100q63 19 91.5 66t31.5 147h-123v238h254v-209q0 -84 -24.5 -153t-83.5 -121.5t-146 -67.5z" />
    <glyph glyph-name="quotedblleft" unicode="&#x201c;" horiz-adv-x="985" 
d="M582 911v209q0 84 24.5 153t83.5 121.5t146 67.5v-100q-63 -19 -91.5 -66t-31.5 -147h123v-238h-254zM150 911v209q0 62 14.5 117t43.5 102t79 79.5t116 43.5v-100q-63 -19 -91 -66t-31 -147h122v-238h-253z" />
    <glyph glyph-name="quotedblright" unicode="&#x201d;" horiz-adv-x="985" 
d="M582 911v101q63 19 91.5 66t31.5 147h-123v237h254v-209q0 -84 -24.5 -153t-83.5 -121.5t-146 -67.5zM150 911v101q63 19 91 66t31 147h-122v237h253v-209q0 -62 -14.5 -117t-43.5 -102t-79 -79.5t-116 -43.5z" />
    <glyph glyph-name="quotedblbase" unicode="&#x201e;" horiz-adv-x="985" 
d="M582 -313v100q63 19 91.5 66t31.5 147h-123v238h254v-209q0 -84 -24.5 -153t-83.5 -121.5t-146 -67.5zM150 -313v100q63 19 91 66t31 147h-122v238h253v-209q0 -62 -14.5 -117t-43.5 -102t-79 -79.5t-116 -43.5z" />
    <glyph glyph-name="dagger" unicode="&#x2020;" horiz-adv-x="1368" 
d="M109 799v188h473v475h204v-475h474v-188h-474v-1188h-204v1188h-473z" />
    <glyph glyph-name="daggerdbl" unicode="&#x2021;" horiz-adv-x="1368" 
d="M582 242v589h-473v173h473v458h204v-458h474v-173h-474v-589h474v-172h-474v-459h-204v459h-473v172h473z" />
    <glyph glyph-name="bullet" unicode="&#x2022;" horiz-adv-x="1024" 
d="M147 731q0 151 107 258t258 107t258 -107t107 -258t-107 -257.5t-258 -106.5t-258 106.5t-107 257.5z" />
    <glyph glyph-name="ellipsis" unicode="&#x2026;" horiz-adv-x="2048" 
d="M215 0v238h254v-238h-254zM897 0v238h254v-238h-254zM1579 0v238h254v-238h-254z" />
    <glyph glyph-name="perthousand" unicode="&#x2030;" horiz-adv-x="2390" 
d="M2216 352q0 250 -191 250q-190 0 -190 -250t190 -250q191 0 191 250zM311 -33l813 1487h172l-813 -1487h-172zM555 1069q0 250 -190 250q-191 0 -191 -250t191 -250q190 0 190 250zM1675 352q0 83 19.5 150.5t60 121.5t109.5 83.5t161 29.5t161.5 -30t110 -83.5t60 -121
t19.5 -150.5t-19.5 -150.5t-60 -121t-110 -83.5t-161.5 -30t-161 29.5t-109.5 83.5t-60 121.5t-19.5 150.5zM14 1069q0 83 19.5 150.5t60 121t110 83.5t161.5 30t161 -29.5t109.5 -83.5t60 -121.5t19.5 -150.5t-19.5 -150.5t-60 -121.5t-109.5 -83.5t-161 -29.5t-161.5 30
t-110 83.5t-60 121t-19.5 150.5zM887 352q0 83 19.5 150.5t60 121.5t109.5 83.5t161 29.5t161 -29.5t109.5 -83.5t60 -121.5t19.5 -150.5t-19.5 -150.5t-60 -121.5t-109.5 -83.5t-161 -29.5t-161 29.5t-109.5 83.5t-60 121.5t-19.5 150.5zM1427 352q0 250 -190 250
t-190 -250t190 -250t190 250z" />
    <glyph glyph-name="guilsinglleft" unicode="&#x2039;" horiz-adv-x="684" 
d="M158 463v213l368 272v-207l-243 -172l243 -172v-207z" />
    <glyph glyph-name="guilsinglright" unicode="&#x203a;" horiz-adv-x="684" 
d="M401 569l-243 172v207l368 -272v-213l-368 -273v207z" />
    <glyph glyph-name="fraction" unicode="&#x2044;" horiz-adv-x="342" 
d="M-322 -33l814 1487h172l-814 -1487h-172z" />
    <glyph glyph-name="Euro" unicode="&#x20ac;" horiz-adv-x="1368" 
d="M1319 1331l-90 -162q-104 50 -188 74.5t-181 24.5q-353 0 -454 -348h727l-56 -123h-696l-4 -115h663l-55 -123h-596q38 -196 159 -304t318 -108q124 0 215.5 40.5t216.5 131.5v-217q-108 -76 -204 -105.5t-230 -29.5q-291 0 -470 152.5t-222 439.5h-147l55 123h84l4 115
h-148l56 123h110q60 255 237.5 392.5t438.5 137.5q128 0 233.5 -28t223.5 -91z" />
    <glyph glyph-name="afii61289" unicode="&#x2113;" horiz-adv-x="1183" 
d="M1034 342l90 -80q-83 -144 -202.5 -214.5t-264.5 -70.5q-93 0 -166.5 29.5t-120 80.5t-73.5 114t-35 137q-2 8 -2 22q-25 -17 -76 -55t-57 -43l-59 105q22 17 62 45.5t71 51.5t57 44v547q0 141 31.5 244.5t86 161t118 84t137.5 26.5q152 0 231.5 -100t79.5 -246
q0 -97 -35 -194t-104 -192.5t-156.5 -185.5t-208.5 -192v-49q3 -141 79 -215t183 -74q105 0 194 65.5t140 153.5zM438 1090v-463q175 170 270 311.5t95 278.5q0 225 -170 225q-34 0 -66.5 -18t-62.5 -56.5t-48 -110t-18 -167.5z" />
    <glyph glyph-name="trademark" unicode="&#x2122;" horiz-adv-x="2027" 
d="M295 618v709h-254v135h680v-135h-254v-709h-172zM1671 618v672h-4l-248 -672h-114l-248 672h-4v-672h-160v844h240l229 -598l229 598h240v-844h-160z" />
    <glyph glyph-name="Omega" unicode="&#x2126;" horiz-adv-x="1783" 
d="M483 143v7q-143 99 -237 256.5t-94 361.5q0 144 57 271.5t156 218.5t237 143.5t295 52.5q162 0 301.5 -57t233 -152t146 -218t52.5 -255q0 -108 -28.5 -207t-77 -176.5t-106.5 -136.5t-124 -102v-7h369v-143h-602v109q76 39 141 95t119.5 133.5t85.5 182t31 225.5
q0 81 -22.5 161.5t-68 153.5t-109 129t-152 89t-189.5 33q-162 0 -289.5 -78t-195.5 -208.5t-68 -287.5q0 -218 110 -384.5t269 -243.5v-109h-604v143h364z" />
    <glyph glyph-name="estimated" unicode="&#x212e;" horiz-adv-x="1792" 
d="M1720 690h-1337q-10 0 -10 -8v-406q0 -26 18 -47q100 -103 230 -161t276 -58q156 0 294 65.5t239 180.5h118q-112 -133 -284.5 -210t-368.5 -77q-168 0 -321 58.5t-263.5 158t-175.5 237t-65 288.5t65 288.5t175.5 237t263.5 158.5t321 59t321 -59t263.5 -158.5
t175.5 -237t65 -288.5v-21zM1417 743v406q0 28 -18 49q-102 99 -231 155t-271 56q-144 0 -274 -58t-230 -159q-20 -20 -20 -51v-398q0 -14 10 -14h1026q8 0 8 14z" />
    <glyph glyph-name="partialdiff" unicode="&#x2202;" horiz-adv-x="1320" 
d="M240 1352l-66 123q168 120 412 120q124 0 235 -52.5t196.5 -149.5t136 -247.5t50.5 -334.5q0 -166 -42 -316t-120 -267t-201 -186t-274 -69q-95 0 -175.5 30.5t-134 79.5t-91.5 113t-55 130t-17 131q0 114 40.5 211.5t109 164.5t161 104.5t195.5 37.5q66 0 128.5 -18
t107.5 -44.5t83.5 -59.5t60 -59.5t34.5 -48.5h2q2 27 2 97q0 135 -36 250t-97.5 193t-144 121.5t-175.5 43.5q-186 0 -325 -98zM584 119h2q108 0 196 69t139 173.5t68 226.5q-12 36 -42 76.5t-73.5 79.5t-106.5 64.5t-130 25.5q-147 0 -250.5 -108.5t-103.5 -264.5
q0 -144 84.5 -243t216.5 -99z" />
    <glyph glyph-name="Delta" unicode="&#x2206;" horiz-adv-x="1579" 
d="M68 0v119l612 1354h225l604 -1354v-119h-1441zM268 145h1028l-350 779q-11 28 -75.5 178.5t-82.5 202.5h-10q-13 -35 -69 -168.5t-72 -173.5z" />
    <glyph glyph-name="product" unicode="&#x220f;" horiz-adv-x="1689" 
d="M1632 1272h-272v-1469h-182v1469h-668v-1469h-184v1469h-271v158h1577v-158z" />
    <glyph glyph-name="summation" unicode="&#x2211;" horiz-adv-x="1337" 
d="M1286 -197h-1237v111l639 698l-608 697v121h1171v-156h-903v-6l559 -635l-602 -660v-8h981v-162z" />
    <glyph glyph-name="minus" unicode="&#x2212;" horiz-adv-x="1228" 
d="M96 432v172h1037v-172h-1037z" />
    <glyph glyph-name="uni2215" unicode="&#x2215;" horiz-adv-x="342" 
d="M-322 -33l814 1487h172l-814 -1487h-172z" />
    <glyph glyph-name="uni2219" unicode="&#x2219;" horiz-adv-x="684" 
d="M190 631q0 63 44.5 107t107.5 44t107.5 -44t44.5 -107t-44.5 -107.5t-107.5 -44.5t-107.5 44.5t-44.5 107.5z" />
    <glyph glyph-name="radical" unicode="&#x221a;" horiz-adv-x="1359" 
d="M1376 1696l-538 -2005h-164l-383 944l-176 -68l-39 103l327 131l310 -793q39 -119 43 -135h2q4 23 16.5 72t16.5 67l444 1684h141z" />
    <glyph glyph-name="infinity" unicode="&#x221e;" horiz-adv-x="1771" 
d="M1653 594v-2q0 -161 -103.5 -262t-244.5 -101q-101 0 -196 64.5t-222 206.5q-46 -52 -74.5 -82t-74.5 -71t-85 -63t-90.5 -38.5t-105.5 -16.5q-138 0 -239 103t-101 252q0 155 102 257.5t256 102.5q62 0 120 -21t112 -62.5t95.5 -83.5t94.5 -103q5 6 16 18q31 35 48 53.5
t48 50t53 48.5t55 39t62.5 33.5t66.5 19.5t75 8q149 -1 240.5 -98t91.5 -252zM473 340h2q30 0 59 7.5t58 24.5t51 31.5t51.5 42.5t45 43.5t45.5 48t40 42.5q-4 5 -13 16q-39 48 -60 72.5t-59.5 62.5t-69.5 57.5t-74 34.5t-88 15q-103 0 -165.5 -74.5t-62.5 -181.5
q0 -101 67.5 -171.5t172.5 -70.5zM1309 838h-2q-43 0 -85.5 -16.5t-83 -48.5t-68 -58t-65.5 -68t-51 -55q86 -95 137 -143t107.5 -78.5t114.5 -30.5q101 0 162 74.5t61 169.5q0 116 -64 185t-163 69z" />
    <glyph glyph-name="integral" unicode="&#x222b;" horiz-adv-x="819" 
d="M795 1718l-29 -119q-42 25 -90 25q-80 0 -121 -49q-42 -46 -60 -133t-18 -230q0 -159 17.5 -505t17.5 -517q0 -269 -98 -409q-38 -56 -101 -85.5t-133 -29.5q-43 0 -90.5 12t-71.5 25l29 125q67 -29 113 -29q66 0 108 45q41 46 62.5 125.5t21.5 225.5q0 172 -17.5 523.5
t-17.5 512.5q0 170 29.5 273t97.5 167q86 80 220 80q79 0 131 -33z" />
    <glyph glyph-name="approxequal" unicode="&#x2248;" horiz-adv-x="1339" 
d="M1155 918l72 -70q-126 -209 -305 -209q-47 0 -96.5 14.5t-77.5 28t-107 53.5q-48 26 -71.5 38t-66.5 25t-81 13q-40 0 -75 -13t-65 -39t-52 -51t-50 -63l-74 68q56 98 143 154.5t187 56.5q32 0 61.5 -5t62.5 -18.5t46.5 -19.5t51.5 -27.5t40 -22.5q6 -3 27 -14t26.5 -14
t23 -11.5t24.5 -11t22 -8.5t24.5 -8t23.5 -5t27.5 -4t27.5 -1q70 0 123 39.5t108 124.5zM1155 526l72 -69q-123 -209 -305 -209q-15 0 -29.5 1.5t-26.5 3t-28 6t-25 6.5t-27 9.5t-25.5 10.5t-28 13t-27.5 13.5t-31.5 16t-32.5 16.5q-45 25 -72 38.5t-68.5 25.5t-78.5 12
q-41 0 -76 -13t-65 -39t-51.5 -51.5t-49.5 -64.5l-74 70q56 98 143 154t187 56q32 0 61.5 -5t62 -18t47 -19t50.5 -26t39 -22q9 -5 37 -20t37.5 -19.5t33 -15t38.5 -14.5t37.5 -7.5t44.5 -3.5q71 0 123 38.5t108 125.5z" />
    <glyph glyph-name="notequal" unicode="&#x2260;" horiz-adv-x="1339" 
d="M952 1085l-106 -223h373v-114h-422l-158 -330h580v-115h-631l-129 -276l-94 45l110 231h-356v115h407l156 330h-563v114h612l127 268z" />
    <glyph glyph-name="lessequal" unicode="&#x2264;" horiz-adv-x="1339" 
d="M1214 182l-1083 500v121l1081 500v-134l-952 -421v-7l954 -426v-133zM1219 -20h-1100v114h1100v-114z" />
    <glyph glyph-name="greaterequal" unicode="&#x2265;" horiz-adv-x="1339" 
d="M133 1303l1081 -500v-121l-1081 -500v133l952 426v4l-952 424v134zM1214 -20h-1093v114h1093v-114z" />
    <glyph glyph-name="lozenge" unicode="&#x25ca;" horiz-adv-x="1361" 
d="M1235 715l-483 -824h-148l-479 824l481 821h148zM1067 709l-344 591q-31 61 -43 97h-6q-14 -39 -45 -97l-338 -583l346 -594q36 -75 41 -94h6q9 29 43 94z" />
    <glyph glyph-name="fi" unicode="&#xfb01;" horiz-adv-x="1138" 
d="M809 0v1073h205v-1073h-205zM809 1249v226h205v-226h-205zM215 1073v160q0 143 83.5 204.5t246.5 61.5q28 0 56.5 -2.5t67 -7t54.5 -6.5v-160q-78 4 -115 4q-105 0 -146.5 -20.5t-41.5 -83.5v-150h303v-160h-303v-913h-205v913h-219v160h219z" />
    <glyph glyph-name="fl" unicode="&#xfb02;" horiz-adv-x="1138" 
d="M809 0v1475h205v-1475h-205zM215 1073v160q0 143 83.5 204.5t246.5 61.5q28 0 56.5 -2.5t67 -7t54.5 -6.5v-160q-78 4 -115 4q-105 0 -146.5 -20.5t-41.5 -83.5v-150h303v-160h-303v-913h-205v913h-219v160h219z" />
    <glyph glyph-name="a.superior" horiz-adv-x="862" 
d="M203 1227h-135q12 122 98 174.5t252 52.5q61 0 114 -8t103.5 -26.5t80 -55t29.5 -88.5v-332q0 -49 60 -49q25 0 37 4v-92q-24 -1 -61 -5.5t-44 -4.5q-54 0 -84 19.5t-37 66.5q-38 -51 -122.5 -80t-174.5 -29q-67 0 -118 12.5t-81.5 31.5t-49.5 46.5t-26 54t-7 56.5
q0 89 67 137.5t224 63.5l155 14q60 5 87.5 18.5t27.5 44.5q0 52 -49 71t-135 19q-206 0 -211 -116zM598 1065v57h-4q-10 -16 -37 -23.5t-98 -17.5l-131 -18q-71 -10 -107.5 -30t-36.5 -58q0 -39 43.5 -64.5t108.5 -25.5q107 0 184.5 50t77.5 130z" />
    <glyph glyph-name="o.superior" horiz-adv-x="911" 
d="M51 1114q0 146 105 243t299 97q195 0 300 -97t105 -243q0 -145 -105 -242.5t-300 -97.5q-193 0 -298.5 97.5t-105.5 242.5zM700 1112q0 38 -14 75t-42 70t-77 53.5t-112 20.5q-62 0 -111 -20.5t-77 -53.5t-42 -70t-14 -75q0 -37 14 -73.5t42 -69t77 -52.5t111 -20
q63 0 112 20t77 52.5t42 69t14 73.5z" />
    <glyph glyph-name="one.superior" horiz-adv-x="591" 
d="M231 586v590h-247v122q47 0 80.5 2.5t70.5 12t61.5 25.5t43.5 45.5t26 70.5h137v-868h-172z" />
    <glyph glyph-name="two.superior" horiz-adv-x="888" 
d="M238 1147h-160q0 142 90.5 224.5t273.5 82.5q173 0 262 -75t89 -197q0 -80 -39.5 -141t-102.5 -100t-128 -69t-130 -66t-96 -73h496v-147h-744q4 81 37.5 145t84 105t111 74t120 60.5t109 56t80 68t30.5 89.5q0 66 -52 100.5t-129 34.5q-96 0 -147.5 -49t-54.5 -123z" />
    <glyph glyph-name="three.superior" horiz-adv-x="888" 
d="M352 969v127q16 -2 88 -2q77 0 114.5 31.5t37.5 84.5q0 109 -172 109q-98 0 -140 -36t-47 -112h-159q7 141 101 212t249 71q168 0 254 -68t86 -167q0 -63 -35 -112t-104 -63v-4q77 -12 128.5 -67t51.5 -123q0 -35 -6.5 -69t-29.5 -75.5t-60.5 -72t-106.5 -51.5t-160 -21
q-393 0 -393 291h160q6 -92 58.5 -124t162.5 -32q100 0 151.5 34.5t51.5 96.5q0 67 -55 105.5t-148 38.5q-28 0 -52 -1t-26 -1z" />
    </font>
</defs>
</svg>
